RobotoSerifMicroWide-Regular.ufo
<glyph name="plus" format="2">
  <advance width="594"/>
  <unicode hex="002B"/>
  <outline>
    <contour>
      <point x="259" y="576" type="line"/>
      <point x="259" y="106" type="line"/>
      <point x="334" y="106" type="line"/>
      <point x="334" y="576" type="line"/>
    </contour>
    <contour>
      <point x="537" y="374" type="line"/>
      <point x="57" y="374" type="line"/>
      <point x="57" y="308" type="line"/>
      <point x="537" y="308" type="line"/>
    </contour>
  </outline>
</glyph>
<glyph name="slash" format="2">
  <advance width="635"/>
  <unicode hex="002F"/>
  <outline>
    <contour>
      <point x="630" y="780" type="line"/>
      <point x="90" y="-158" type="line"/>
      <point x="6" y="-158" type="line"/>
      <point x="545" y="780" type="line"/>
    </contour>
  </outline>
</glyph>
<glyph name="two" format="2">
  <advance width="594"/>
  <unicode hex="0032"/>
  <outline>
    <contour>
      <point x="328" y="68" type="line" smooth="yes"/>
      <point x="415" y="68"/>
      <point x="450" y="75"/>
      <point x="453" y="109" type="curve" smooth="yes"/>
      <point x="463" y="212" type="line"/>
      <point x="529" y="212" type="line"/>
      <point x="529" y="0" type="line"/>
      <point x="60" y="0" type="line"/>
      <point x="60" y="93" type="line"/>
      <point x="288" y="279"/>
      <point x="413" y="345"/>
      <point x="413" y="500" type="curve" smooth="yes"/>
      <point x="413" y="601"/>
      <point x="364" y="626"/>
      <point x="280" y="626" type="curve" smooth="yes"/>
      <point x="207" y="626"/>
      <point x="150" y="601"/>
      <point x="118" y="568" type="curve"/>
      <point x="121" y="590"/>
      <point x="164" y="626"/>
      <point x="164" y="609" type="curve" smooth="yes"/>
      <point x="164" y="461" type="line"/>
      <point x="71" y="461" type="line"/>
      <point x="71" y="609" type="line"/>
      <point x="104" y="638"/>
      <point x="183" y="683"/>
      <point x="286" y="683" type="curve" smooth="yes"/>
      <point x="430" y="683"/>
      <point x="507" y="625"/>
      <point x="507" y="500" type="curve" smooth="yes"/>
      <point x="507" y="336"/>
      <point x="298" y="207"/>
      <point x="94" y="52" type="curve"/>
      <point x="80" y="47"/>
      <point x="77" y="62"/>
      <point x="89" y="68" type="curve"/>
    </contour>
  </outline>
</glyph>
<glyph name="three" format="2">
  <advance width="594"/>
  <unicode hex="0033"/>
  <outline>
    <contour>
      <point x="266" y="331" type="line"/>
      <point x="465" y="329"/>
      <point x="542" y="262"/>
      <point x="542" y="151" type="curve" smooth="yes"/>
      <point x="542" y="13"/>
      <point x="441" y="-58"/>
      <point x="289" y="-58" type="curve" smooth="yes"/>
      <point x="143" y="-58"/>
      <point x="78" y="4"/>
      <point x="38" y="102" type="curve"/>
      <point x="97" y="136" type="line"/>
      <point x="127" y="68"/>
      <point x="166" y="0"/>
      <point x="288" y="0" type="curve" smooth="yes"/>
      <point x="389" y="0"/>
      <point x="448" y="33"/>
      <point x="448" y="149" type="curve" smooth="yes"/>
      <point x="448" y="250"/>
      <point x="398" y="295"/>
      <point x="269" y="295" type="curve" smooth="yes"/>
      <point x="171" y="295" type="line"/>
      <point x="171" y="357" type="line"/>
      <point x="256" y="357" type="line" smooth="yes"/>
      <point x="359" y="357"/>
      <point x="426" y="396"/>
      <point x="426" y="503" type="curve" smooth="yes"/>
      <point x="426" y="599"/>
      <point x="376" y="626"/>
      <point x="291" y="626" type="curve" smooth="yes"/>
      <point x="199" y="626"/>
      <point x="156" y="597"/>
      <point x="130" y="570" type="curve"/>
      <point x="127" y="587"/>
      <point x="144" y="602"/>
      <point x="173" y="606" type="curve"/>
      <point x="173" y="481" type="line"/>
      <point x="85" y="481" type="line"/>
      <point x="85" y="611" type="line"/>
      <point x="116" y="641"/>
      <point x="183" y="683"/>
      <point x="294" y="683" type="curve" smooth="yes"/>
      <point x="438" y="683"/>
      <point x="517" y="624"/>
      <point x="517" y="514" type="curve" smooth="yes"/>
      <point x="517" y="395"/>
      <point x="395" y="326"/>
      <point x="250" y="323" type="curve"/>
      <point x="330" y="341" type="line"/>
      <point x="330" y="316" type="line"/>
    </contour>
  </outline>
</glyph>
<glyph name="C" format="2">
  <advance width="836"/>
  <unicode hex="0043"/>
  <anchor x="436" y="741" name="top"/>
  <anchor x="436" y="0" name="bottom"/>
  <outline>
    <contour>
      <point x="426" y="674" type="curve" smooth="yes"/>
      <point x="559" y="674"/>
      <point x="647" y="592"/>
      <point x="685" y="460" type="curve"/>
      <point x="758" y="460" type="line"/>
      <point x="758" y="720" type="line"/>
      <point x="688" y="720" type="line"/>
      <point x="676" y="544" type="line"/>
      <point x="683" y="529"/>
      <point x="690" y="515"/>
      <point x="697" y="501" type="curve"/>
      <point x="673" y="656"/>
      <point x="573" y="735"/>
      <point x="426" y="735" type="curve" smooth="yes"/>
      <point x="214" y="735"/>
      <point x="65" y="607"/>
      <point x="65" y="356" type="curve" smooth="yes"/>
      <point x="65" y="105"/>
      <point x="208" y="-25"/>
      <point x="431" y="-25" type="curve" smooth="yes"/>
      <point x="611" y="-25"/>
      <point x="723" y="64"/>
      <point x="775" y="214" type="curve"/>
      <point x="712" y="239" type="line"/>
      <point x="669" y="126"/>
      <point x="595" y="36"/>
      <point x="434" y="36" type="curve" smooth="yes"/>
      <point x="255" y="36"/>
      <point x="164" y="134"/>
      <point x="164" y="356" type="curve" smooth="yes"/>
      <point x="164" y="578"/>
      <point x="257" y="674"/>
    </contour>
  </outline>
</glyph>
<glyph name="H" format="2">
  <advance width="917"/>
  <unicode hex="0048"/>
  <anchor x="462" y="741" name="top"/>
  <anchor x="462" y="0" name="bottom"/>
  <outline>
    <contour>
      <point x="237" y="396" type="line"/>
      <point x="237" y="336" type="line"/>
      <point x="681" y="336" type="line"/>
      <point x="681" y="396" type="line"/>
    </contour>
    <contour>
      <point x="62" y="0" type="line"/>
      <point x="358" y="0" type="line"/>
      <point x="358" y="60" type="line"/>
      <point x="349" y="60" type="line" smooth="yes"/>
      <point x="308" y="60"/>
      <point x="257" y="63"/>
      <point x="257" y="70" type="curve" smooth="yes"/>
      <point x="257" y="640" type="line" smooth="yes"/>
      <point x="257" y="647"/>
      <point x="308" y="650"/>
      <point x="349" y="650" type="curve" smooth="yes"/>
      <point x="358" y="650" type="line"/>
      <point x="358" y="710" type="line"/>
      <point x="62" y="710" type="line"/>
      <point x="62" y="650" type="line"/>
      <point x="74" y="650" type="line" smooth="yes"/>
      <point x="126" y="650"/>
      <point x="164" y="643"/>
      <point x="164" y="614" type="curve" smooth="yes"/>
      <point x="164" y="96" type="line" smooth="yes"/>
      <point x="164" y="67"/>
      <point x="126" y="60"/>
      <point x="74" y="60" type="curve" smooth="yes"/>
      <point x="62" y="60" type="line"/>
    </contour>
    <contour>
      <point x="558" y="0" type="line"/>
      <point x="854" y="0" type="line"/>
      <point x="854" y="60" type="line"/>
      <point x="843" y="60" type="line" smooth="yes"/>
      <point x="791" y="60"/>
      <point x="752" y="67"/>
      <point x="752" y="96" type="curve" smooth="yes"/>
      <point x="752" y="614" type="line" smooth="yes"/>
      <point x="752" y="643"/>
      <point x="791" y="650"/>
      <point x="843" y="650" type="curve" smooth="yes"/>
      <point x="854" y="650" type="line"/>
      <point x="854" y="710" type="line"/>
      <point x="558" y="710" type="line"/>
      <point x="558" y="650" type="line"/>
      <point x="568" y="650" type="line" smooth="yes"/>
      <point x="608" y="650"/>
      <point x="660" y="647"/>
      <point x="660" y="640" type="curve" smooth="yes"/>
      <point x="660" y="70" type="line" smooth="yes"/>
      <point x="660" y="63"/>
      <point x="608" y="60"/>
      <point x="568" y="60" type="curve" smooth="yes"/>
      <point x="558" y="60" type="line"/>
    </contour>
  </outline>
</glyph>
<glyph name="J" format="2">
  <advance width="709"/>
  <unicode hex="004A"/>
  <anchor x="478" y="741" name="top"/>
  <outline>
    <contour>
      <point x="338" y="710" type="line"/>
      <point x="338" y="650" type="line"/>
      <point x="364" y="650" type="line" smooth="yes"/>
      <point x="416" y="650"/>
      <point x="454" y="643"/>
      <point x="454" y="614" type="curve" smooth="yes"/>
      <point x="454" y="209" type="line" smooth="yes"/>
      <point x="454" y="66"/>
      <point x="394" y="35"/>
      <point x="290" y="35" type="curve" smooth="yes"/>
      <point x="212" y="35"/>
      <point x="160" y="64"/>
      <point x="132" y="88" type="curve"/>
      <point x="101" y="96"/>
      <point x="113" y="66"/>
      <point x="165" y="51" type="curve"/>
      <point x="165" y="225" type="line"/>
      <point x="60" y="225" type="line"/>
      <point x="60" y="50" type="line"/>
      <point x="95" y="22"/>
      <point x="169" y="-25"/>
      <point x="290" y="-25" type="curve" smooth="yes"/>
      <point x="444" y="-25"/>
      <point x="547" y="40"/>
      <point x="547" y="209" type="curve" smooth="yes"/>
      <point x="547" y="614" type="line" smooth="yes"/>
      <point x="547" y="643"/>
      <point x="585" y="650"/>
      <point x="637" y="650" type="curve" smooth="yes"/>
      <point x="659" y="650" type="line"/>
      <point x="659" y="710" type="line"/>
    </contour>
  </outline>
</glyph>
<glyph name="P" format="2">
  <advance width="736"/>
  <unicode hex="0050"/>
  <outline>
    <contour>
      <point x="257" y="70" type="line" smooth="yes"/>
      <point x="257" y="63"/>
      <point x="307" y="60"/>
      <point x="357" y="60" type="curve" smooth="yes"/>
      <point x="378" y="60" type="line"/>
      <point x="378" y="0" type="line"/>
      <point x="62" y="0" type="line"/>
      <point x="62" y="60" type="line"/>
      <point x="74" y="60" type="line" smooth="yes"/>
      <point x="126" y="60"/>
      <point x="164" y="67"/>
      <point x="164" y="96" type="curve" smooth="yes"/>
      <point x="164" y="614" type="line" smooth="yes"/>
      <point x="164" y="643"/>
      <point x="126" y="650"/>
      <point x="74" y="650" type="curve" smooth="yes"/>
      <point x="62" y="650" type="line"/>
      <point x="62" y="710" type="line"/>
      <point x="418" y="710" type="line" smooth="yes"/>
      <point x="579" y="710"/>
      <point x="675" y="642"/>
      <point x="675" y="499" type="curve" smooth="yes"/>
      <point x="675" y="358"/>
      <point x="572" y="283"/>
      <point x="418" y="283" type="curve" smooth="yes"/>
      <point x="229" y="283" type="line"/>
      <point x="229" y="342" type="line"/>
      <point x="418" y="342" type="line" smooth="yes"/>
      <point x="526" y="342"/>
      <point x="576" y="395"/>
      <point x="576" y="499" type="curve" smooth="yes"/>
      <point x="576" y="601"/>
      <point x="526" y="651"/>
      <point x="418" y="651" type="curve" smooth="yes"/>
      <point x="257" y="651" type="line"/>
    </contour>
  </outline>
</glyph>
<glyph name="T" format="2">
  <advance width="773"/>
  <unicode hex="0054"/>
  <anchor x="391" y="741" name="top"/>
  <anchor x="391" y="0" name="bottom"/>
  <outline>
    <contour>
      <point x="340" y="96" type="line" smooth="yes"/>
      <point x="340" y="67"/>
      <point x="297" y="60"/>
      <point x="245" y="60" type="curve" smooth="yes"/>
      <point x="224" y="60" type="line"/>
      <point x="224" y="0" type="line"/>
      <point x="549" y="0" type="line"/>
      <point x="549" y="60" type="line"/>
      <point x="528" y="60" type="line" smooth="yes"/>
      <point x="476" y="60"/>
      <point x="433" y="67"/>
      <point x="433" y="96" type="curve" smooth="yes"/>
      <point x="433" y="651" type="line"/>
      <point x="496" y="651" type="line" smooth="yes"/>
      <point x="596" y="651"/>
      <point x="633" y="634"/>
      <point x="638" y="597" type="curve" smooth="yes"/>
      <point x="651" y="472" type="line"/>
      <point x="716" y="472" type="line"/>
      <point x="716" y="710" type="line"/>
      <point x="56" y="710" type="line"/>
      <point x="56" y="472" type="line"/>
      <point x="121" y="472" type="line"/>
      <point x="135" y="597" type="line" smooth="yes"/>
      <point x="139" y="634"/>
      <point x="176" y="651"/>
      <point x="277" y="651" type="curve" smooth="yes"/>
      <point x="340" y="651" type="line"/>
    </contour>
  </outline>
</glyph>
<glyph name="U" format="2">
  <advance width="881"/>
  <unicode hex="0055"/>
  <anchor x="442" y="741" name="top"/>
  <anchor x="500" y="0" name="right"/>
  <anchor x="442" y="0" name="bottom"/>
  <outline>
    <contour>
      <point x="249" y="256" type="curve" smooth="yes"/>
      <point x="249" y="640" type="line" smooth="yes"/>
      <point x="249" y="647"/>
      <point x="301" y="650"/>
      <point x="341" y="650" type="curve" smooth="yes"/>
      <point x="351" y="650" type="line"/>
      <point x="351" y="710" type="line"/>
      <point x="55" y="710" type="line"/>
      <point x="55" y="650" type="line"/>
      <point x="67" y="650" type="line" smooth="yes"/>
      <point x="119" y="650"/>
      <point x="157" y="643"/>
      <point x="157" y="614" type="curve" smooth="yes"/>
      <point x="157" y="256" type="line" smooth="yes"/>
      <point x="157" y="56"/>
      <point x="279" y="-25"/>
      <point x="444" y="-25" type="curve" smooth="yes"/>
      <point x="599" y="-25"/>
      <point x="724" y="55"/>
      <point x="724" y="256" type="curve" smooth="yes"/>
      <point x="724" y="605" type="line" smooth="yes"/>
      <point x="724" y="639"/>
      <point x="762" y="650"/>
      <point x="814" y="650" type="curve" smooth="yes"/>
      <point x="826" y="650" type="line"/>
      <point x="826" y="710" type="line"/>
      <point x="552" y="710" type="line"/>
      <point x="552" y="650" type="line"/>
      <point x="562" y="650" type="line" smooth="yes"/>
      <point x="602" y="650"/>
      <point x="654" y="643"/>
      <point x="654" y="631" type="curve" smooth="yes"/>
      <point x="654" y="256" type="line" smooth="yes"/>
      <point x="654" y="98"/>
      <point x="569" y="45"/>
      <point x="452" y="45" type="curve" smooth="yes"/>
      <point x="335" y="45"/>
      <point x="249" y="98"/>
    </contour>
  </outline>
</glyph>
<glyph name="W" format="2">
  <advance width="1115"/>
  <unicode hex="0057"/>
  <anchor x="568" y="741" name="top"/>
  <outline>
    <contour>
      <point x="22" y="710" type="line"/>
      <point x="22" y="650" type="line"/>
      <point x="29" y="650" type="line" smooth="yes"/>
      <point x="70" y="650"/>
      <point x="95" y="648"/>
      <point x="105" y="613" type="curve" smooth="yes"/>
      <point x="277" y="-2" type="line"/>
      <point x="387" y="-2" type="line"/>
      <point x="567" y="658" type="line"/>
      <point x="550" y="656" type="line"/>
      <point x="738" y="-2" type="line"/>
      <point x="845" y="-2" type="line"/>
      <point x="1008" y="602" type="line" smooth="yes"/>
      <point x="1017" y="636"/>
      <point x="1045" y="650"/>
      <point x="1085" y="650" type="curve" smooth="yes"/>
      <point x="1093" y="650" type="line"/>
      <point x="1093" y="710" type="line"/>
      <point x="855" y="710" type="line"/>
      <point x="855" y="650" type="line"/>
      <point x="870" y="650" type="line" smooth="yes"/>
      <point x="906" y="650"/>
      <point x="948" y="640"/>
      <point x="948" y="626" type="curve"/>
      <point x="793" y="47" type="line"/>
      <point x="808" y="47" type="line"/>
      <point x="623" y="710" type="line"/>
      <point x="518" y="710" type="line"/>
      <point x="333" y="44" type="line"/>
      <point x="349" y="45" type="line"/>
      <point x="191" y="639" type="line"/>
      <point x="191" y="646"/>
      <point x="236" y="650"/>
      <point x="271" y="650" type="curve" smooth="yes"/>
      <point x="288" y="650" type="line"/>
      <point x="288" y="710" type="line"/>
    </contour>
  </outline>
</glyph>
<glyph name="Y" format="2">
  <advance width="760"/>
  <unicode hex="0059"/>
  <anchor x="382" y="741" name="top"/>
  <anchor x="382" y="0" name="bottom"/>
  <outline>
    <contour>
      <point x="337" y="304" type="line"/>
      <point x="337" y="96" type="line" smooth="yes"/>
      <point x="337" y="67"/>
      <point x="297" y="60"/>
      <point x="243" y="60" type="curve" smooth="yes"/>
      <point x="221" y="60" type="line"/>
      <point x="221" y="0" type="line"/>
      <point x="545" y="0" type="line"/>
      <point x="545" y="60" type="line"/>
      <point x="523" y="60" type="line" smooth="yes"/>
      <point x="469" y="60"/>
      <point x="429" y="67"/>
      <point x="429" y="96" type="curve" smooth="yes"/>
      <point x="429" y="304" type="line"/>
      <point x="422" y="262" type="line"/>
      <point x="633" y="601" type="line" smooth="yes"/>
      <point x="656" y="637"/>
      <point x="679" y="650"/>
      <point x="716" y="650" type="curve" smooth="yes"/>
      <point x="729" y="650" type="line"/>
      <point x="729" y="710" type="line"/>
      <point x="486" y="710" type="line"/>
      <point x="486" y="650" type="line"/>
      <point x="498" y="650" type="line" smooth="yes"/>
      <point x="533" y="650"/>
      <point x="575" y="640"/>
      <point x="575" y="627" type="curve"/>
      <point x="384" y="304" type="line"/>
      <point x="406" y="305" type="line"/>
      <point x="201" y="639" type="line"/>
      <point x="201" y="646"/>
      <point x="241" y="650"/>
      <point x="277" y="650" type="curve" smooth="yes"/>
      <point x="294" y="650" type="line"/>
      <point x="294" y="710" type="line"/>
      <point x="31" y="710" type="line"/>
      <point x="31" y="650" type="line"/>
      <point x="44" y="650" type="line" smooth="yes"/>
      <point x="83" y="650"/>
      <point x="103" y="644"/>
      <point x="124" y="612" type="curve" smooth="yes"/>
      <point x="343" y="263" type="line"/>
    </contour>
  </outline>
</glyph>
<glyph name="d" format="2">
  <advance width="743"/>
  <unicode hex="0064"/>
  <anchor x="684" y="735" name="right"/>
  <anchor x="346" y="0" name="bottom"/>
  <outline>
    <contour>
      <point x="613" y="103" type="curve" smooth="yes"/>
      <point x="613" y="780" type="line"/>
      <point x="428" y="780" type="line"/>
      <point x="428" y="724" type="line"/>
      <point x="439" y="722" type="line" smooth="yes"/>
      <point x="496" y="710"/>
      <point x="524" y="706"/>
      <point x="524" y="677" type="curve" smooth="yes"/>
      <point x="524" y="125" type="line"/>
      <point x="524" y="124" type="line"/>
      <point x="550" y="0" type="line"/>
      <point x="710" y="0" type="line"/>
      <point x="710" y="56" type="line"/>
      <point x="699" y="58" type="line" smooth="yes"/>
      <point x="645" y="68"/>
      <point x="613" y="74"/>
    </contour>
    <contour>
      <point x="321" y="575" type="curve" smooth="yes"/>
      <point x="147" y="575"/>
      <point x="53" y="449"/>
      <point x="53" y="277" type="curve" smooth="yes"/>
      <point x="53" y="105"/>
      <point x="137" y="-13"/>
      <point x="308" y="-13" type="curve" smooth="yes"/>
      <point x="414" y="-13"/>
      <point x="486" y="45"/>
      <point x="544" y="136" type="curve"/>
      <point x="541" y="174" type="line"/>
      <point x="475" y="90"/>
      <point x="412" y="50"/>
      <point x="319" y="50" type="curve" smooth="yes"/>
      <point x="196" y="50"/>
      <point x="147" y="126"/>
      <point x="147" y="277" type="curve" smooth="yes"/>
      <point x="147" y="437"/>
      <point x="208" y="512"/>
      <point x="329" y="512" type="curve" smooth="yes"/>
      <point x="419" y="512"/>
      <point x="478" y="468"/>
      <point x="538" y="384" type="curve"/>
      <point x="545" y="425" type="line"/>
      <point x="492" y="517"/>
      <point x="422" y="575"/>
    </contour>
  </outline>
</glyph>
<glyph name="h" format="2">
  <advance width="744"/>
  <unicode hex="0068"/>
  <anchor x="388" y="755" name="top"/>
  <anchor x="374" y="0" name="bottom"/>
  <outline>
    <contour>
      <point x="234" y="780" type="line"/>
      <point x="49" y="780" type="line"/>
      <point x="49" y="724" type="line"/>
      <point x="59" y="722" type="line" smooth="yes"/>
      <point x="117" y="711"/>
      <point x="145" y="706"/>
      <point x="145" y="677" type="curve" smooth="yes"/>
      <point x="145" y="125" type="line" smooth="yes"/>
      <point x="145" y="65"/>
      <point x="112" y="49"/>
      <point x="53" y="49" type="curve" smooth="yes"/>
      <point x="49" y="49" type="line"/>
      <point x="49" y="0" type="line"/>
      <point x="316" y="0" type="line"/>
      <point x="316" y="49" type="line"/>
      <point x="310" y="49" type="line" smooth="yes"/>
      <point x="281" y="49"/>
      <point x="234" y="52"/>
      <point x="234" y="59" type="curve" smooth="yes"/>
    </contour>
    <contour>
      <point x="711" y="0" type="line"/>
      <point x="711" y="49" type="line"/>
      <point x="707" y="49" type="line" smooth="yes"/>
      <point x="647" y="49"/>
      <point x="615" y="65"/>
      <point x="615" y="125" type="curve" smooth="yes"/>
      <point x="615" y="435" type="line" smooth="yes"/>
      <point x="615" y="524"/>
      <point x="563" y="576"/>
      <point x="461" y="576" type="curve" smooth="yes"/>
      <point x="364" y="576"/>
      <point x="281" y="521"/>
      <point x="214" y="424" type="curve"/>
      <point x="215" y="386" type="line"/>
      <point x="290" y="472"/>
      <point x="357" y="509"/>
      <point x="428" y="509" type="curve" smooth="yes"/>
      <point x="500" y="509"/>
      <point x="526" y="479"/>
      <point x="526" y="424" type="curve" smooth="yes"/>
      <point x="526" y="59" type="line" smooth="yes"/>
      <point x="526" y="52"/>
      <point x="479" y="49"/>
      <point x="450" y="49" type="curve" smooth="yes"/>
      <point x="444" y="49" type="line"/>
      <point x="444" y="0" type="line"/>
    </contour>
  </outline>
</glyph>
<glyph name="k" format="2">
  <advance width="740"/>
  <unicode hex="006B"/>
  <anchor x="374" y="0" name="bottom"/>
  <outline>
    <contour>
      <point x="722" y="0" type="line"/>
      <point x="722" y="49" type="line"/>
      <point x="707" y="49" type="line" smooth="yes"/>
      <point x="660" y="49"/>
      <point x="634" y="56"/>
      <point x="605" y="86" type="curve" smooth="yes"/>
      <point x="354" y="337" type="line"/>
      <point x="350" y="281" type="line"/>
      <point x="568" y="480" type="line" smooth="yes"/>
      <point x="601" y="511"/>
      <point x="623" y="516"/>
      <point x="667" y="516" type="curve" smooth="yes"/>
      <point x="685" y="516" type="line"/>
      <point x="685" y="565" type="line"/>
      <point x="396" y="565" type="line"/>
      <point x="396" y="516" type="line"/>
      <point x="413" y="516" type="line" smooth="yes"/>
      <point x="451" y="516"/>
      <point x="503" y="509"/>
      <point x="503" y="502" type="curve"/>
      <point x="288" y="303" type="line"/>
      <point x="288" y="293" type="line"/>
      <point x="517" y="59" type="line"/>
      <point x="517" y="53"/>
      <point x="475" y="49"/>
      <point x="442" y="49" type="curve" smooth="yes"/>
      <point x="434" y="49" type="line"/>
      <point x="434" y="0" type="line"/>
    </contour>
    <contour>
      <point x="234" y="780" type="line"/>
      <point x="49" y="780" type="line"/>
      <point x="49" y="724" type="line"/>
      <point x="59" y="722" type="line" smooth="yes"/>
      <point x="117" y="711"/>
      <point x="145" y="706"/>
      <point x="145" y="677" type="curve" smooth="yes"/>
      <point x="145" y="125" type="line" smooth="yes"/>
      <point x="145" y="65"/>
      <point x="112" y="49"/>
      <point x="53" y="49" type="curve" smooth="yes"/>
      <point x="49" y="49" type="line"/>
      <point x="49" y="0" type="line"/>
      <point x="319" y="0" type="line"/>
      <point x="319" y="49" type="line"/>
      <point x="311" y="49" type="line" smooth="yes"/>
      <point x="283" y="49"/>
      <point x="234" y="52"/>
      <point x="234" y="59" type="curve" smooth="yes"/>
    </contour>
  </outline>
</glyph>
<glyph name="n" format="2">
  <advance width="744"/>
  <unicode hex="006E"/>
  <anchor x="366" y="551" name="top"/>
  <anchor x="374" y="0" name="bottom"/>
  <outline>
    <contour>
      <point x="49" y="0" type="line"/>
      <point x="316" y="0" type="line"/>
      <point x="316" y="49" type="line"/>
      <point x="310" y="49" type="line" smooth="yes"/>
      <point x="281" y="49"/>
      <point x="234" y="52"/>
      <point x="234" y="59" type="curve" smooth="yes"/>
      <point x="234" y="441" type="line"/>
      <point x="234" y="442" type="line"/>
      <point x="209" y="565" type="line"/>
      <point x="49" y="565" type="line"/>
      <point x="49" y="509" type="line"/>
      <point x="59" y="507" type="line" smooth="yes"/>
      <point x="117" y="496"/>
      <point x="145" y="491"/>
      <point x="145" y="462" type="curve" smooth="yes"/>
      <point x="145" y="125" type="line" smooth="yes"/>
      <point x="145" y="65"/>
      <point x="112" y="49"/>
      <point x="53" y="49" type="curve" smooth="yes"/>
      <point x="49" y="49" type="line"/>
    </contour>
    <contour>
      <point x="711" y="0" type="line"/>
      <point x="711" y="49" type="line"/>
      <point x="707" y="49" type="line" smooth="yes"/>
      <point x="647" y="49"/>
      <point x="615" y="65"/>
      <point x="615" y="125" type="curve" smooth="yes"/>
      <point x="615" y="435" type="line" smooth="yes"/>
      <point x="615" y="524"/>
      <point x="563" y="576"/>
      <point x="461" y="576" type="curve" smooth="yes"/>
      <point x="364" y="576"/>
      <point x="281" y="521"/>
      <point x="214" y="424" type="curve"/>
      <point x="215" y="386" type="line"/>
      <point x="290" y="472"/>
      <point x="357" y="509"/>
      <point x="428" y="509" type="curve" smooth="yes"/>
      <point x="500" y="509"/>
      <point x="526" y="479"/>
      <point x="526" y="424" type="curve" smooth="yes"/>
      <point x="526" y="59" type="line" smooth="yes"/>
      <point x="526" y="52"/>
      <point x="479" y="49"/>
      <point x="450" y="49" type="curve" smooth="yes"/>
      <point x="444" y="49" type="line"/>
      <point x="444" y="0" type="line"/>
    </contour>
  </outline>
</glyph>
<glyph name="u" format="2">
  <advance width="730"/>
  <unicode hex="0075"/>
  <anchor x="339" y="551" name="top"/>
  <anchor x="519" y="0" name="right"/>
  <anchor x="339" y="0" name="bottom"/>
  <outline>
    <contour>
      <point x="225" y="565" type="line"/>
      <point x="33" y="565" type="line"/>
      <point x="33" y="509" type="line"/>
      <point x="49" y="508" type="line" smooth="yes"/>
      <point x="108" y="502"/>
      <point x="136" y="492"/>
      <point x="136" y="458" type="curve" smooth="yes"/>
      <point x="136" y="130" type="line" smooth="yes"/>
      <point x="136" y="41"/>
      <point x="187" y="-11"/>
      <point x="287" y="-11" type="curve" smooth="yes"/>
      <point x="381" y="-11"/>
      <point x="463" y="45"/>
      <point x="531" y="142" type="curve"/>
      <point x="530" y="180" type="line"/>
      <point x="455" y="95"/>
      <point x="388" y="56"/>
      <point x="320" y="56" type="curve" smooth="yes"/>
      <point x="250" y="56"/>
      <point x="225" y="86"/>
      <point x="225" y="141" type="curve" smooth="yes"/>
    </contour>
    <contour>
      <point x="600" y="565" type="line"/>
      <point x="397" y="565" type="line"/>
      <point x="397" y="509" type="line"/>
      <point x="424" y="508" type="line" smooth="yes"/>
      <point x="483" y="504"/>
      <point x="511" y="492"/>
      <point x="511" y="458" type="curve"/>
      <point x="511" y="131" type="line"/>
      <point x="511" y="130" type="line"/>
      <point x="536" y="0" type="line"/>
      <point x="696" y="0" type="line"/>
      <point x="696" y="56" type="line"/>
      <point x="686" y="58" type="line" smooth="yes"/>
      <point x="631" y="68"/>
      <point x="600" y="74"/>
      <point x="600" y="103" type="curve" smooth="yes"/>
    </contour>
  </outline>
</glyph>
<glyph name="y" format="2">
  <advance width="721"/>
  <unicode hex="0079"/>
  <anchor x="362" y="551" name="top"/>
  <anchor x="376" y="-211" name="bottom"/>
  <outline>
    <contour>
      <point x="389" y="40" type="line"/>
      <point x="200" y="500" type="line"/>
      <point x="200" y="506"/>
      <point x="245" y="507"/>
      <point x="285" y="507" type="curve" smooth="yes"/>
      <point x="295" y="507" type="line"/>
      <point x="295" y="565" type="line"/>
      <point x="22" y="565" type="line"/>
      <point x="22" y="507" type="line"/>
      <point x="34" y="507" type="line"/>
      <point x="80" y="507"/>
      <point x="109" y="502"/>
      <point x="120" y="475" type="curve" smooth="yes"/>
      <point x="333" y="-32" type="line"/>
      <point x="379" y="5" type="line"/>
    </contour>
    <contour>
      <point x="409" y="17" type="curve" smooth="yes"/>
      <point x="596" y="458" type="line" smooth="yes"/>
      <point x="613" y="497"/>
      <point x="647" y="507"/>
      <point x="687" y="507" type="curve"/>
      <point x="699" y="507" type="line"/>
      <point x="699" y="565" type="line"/>
      <point x="436" y="565" type="line"/>
      <point x="436" y="507" type="line"/>
      <point x="445" y="507" type="line" smooth="yes"/>
      <point x="487" y="507"/>
      <point x="532" y="499"/>
      <point x="532" y="487" type="curve"/>
      <point x="358" y="65" type="line"/>
      <point x="349" y="48" type="line"/>
      <point x="279" y="-130"/>
      <point x="229" y="-156"/>
      <point x="148" y="-156" type="curve" smooth="yes"/>
      <point x="97" y="-156"/>
      <point x="52" y="-141"/>
      <point x="46" y="-139" type="curve"/>
      <point x="46" y="-215" type="line"/>
      <point x="62" y="-225"/>
      <point x="102" y="-232"/>
      <point x="144" y="-232" type="curve" smooth="yes"/>
      <point x="268" y="-232"/>
      <point x="325" y="-180"/>
    </contour>
  </outline>
</glyph>
<glyph name="currency" format="2">
  <advance width="594"/>
  <unicode hex="00A4"/>
  <outline>
    <contour>
      <point x="425" y="373" type="curve" smooth="yes"/>
      <point x="425" y="281"/>
      <point x="377" y="241"/>
      <point x="297" y="241" type="curve" smooth="yes"/>
      <point x="216" y="241"/>
      <point x="169" y="282"/>
      <point x="169" y="373" type="curve" smooth="yes"/>
      <point x="169" y="465"/>
      <point x="216" y="506"/>
      <point x="297" y="506" type="curve" smooth="yes"/>
      <point x="377" y="506"/>
      <point x="425" y="465"/>
    </contour>
    <contour>
      <point x="89" y="373" type="curve" smooth="yes"/>
      <point x="89" y="263"/>
      <point x="189" y="175"/>
      <point x="297" y="175" type="curve" smooth="yes"/>
      <point x="404" y="175"/>
      <point x="505" y="263"/>
      <point x="505" y="373" type="curve" smooth="yes"/>
      <point x="505" y="485"/>
      <point x="404" y="572"/>
      <point x="297" y="572" type="curve" smooth="yes"/>
      <point x="189" y="572"/>
      <point x="89" y="485"/>
    </contour>
    <contour>
      <point x="17" y="590" type="line"/>
      <point x="134" y="480" type="line"/>
      <point x="194" y="522" type="line"/>
      <point x="70" y="639" type="line"/>
    </contour>
    <contour>
      <point x="576" y="590" type="line"/>
      <point x="524" y="639" type="line"/>
      <point x="400" y="522" type="line"/>
      <point x="459" y="480" type="line"/>
    </contour>
    <contour>
      <point x="17" y="156" type="line"/>
      <point x="70" y="107" type="line"/>
      <point x="194" y="224" type="line"/>
      <point x="134" y="266" type="line"/>
    </contour>
    <contour>
      <point x="576" y="156" type="line"/>
      <point x="459" y="266" type="line"/>
      <point x="400" y="224" type="line"/>
      <point x="524" y="107" type="line"/>
    </contour>
  </outline>
</glyph>
<glyph name="yen" format="2">
  <advance width="594"/>
  <unicode hex="00A5"/>
  <outline>
    <contour>
      <point x="55" y="386" type="line"/>
      <point x="55" y="332" type="line"/>
      <point x="546" y="332" type="line"/>
      <point x="546" y="386" type="line"/>
    </contour>
    <contour>
      <point x="55" y="216" type="line"/>
      <point x="55" y="162" type="line"/>
      <point x="546" y="162" type="line"/>
      <point x="546" y="216" type="line"/>
    </contour>
    <contour>
      <point x="258" y="379" type="line"/>
      <point x="258" y="95" type="line" smooth="yes"/>
      <point x="258" y="66"/>
      <point x="219" y="59"/>
      <point x="165" y="59" type="curve" smooth="yes"/>
      <point x="141" y="59" type="line"/>
      <point x="141" y="0" type="line"/>
      <point x="461" y="0" type="line"/>
      <point x="461" y="59" type="line"/>
      <point x="436" y="59" type="line" smooth="yes"/>
      <point x="382" y="59"/>
      <point x="343" y="66"/>
      <point x="343" y="95" type="curve" smooth="yes"/>
      <point x="343" y="379" type="line"/>
    </contour>
    <contour>
      <point x="333" y="332" type="line"/>
      <point x="504" y="604" type="line" smooth="yes"/>
      <point x="525" y="637"/>
      <point x="544" y="651"/>
      <point x="572" y="651" type="curve" smooth="yes"/>
      <point x="580" y="651" type="line"/>
      <point x="580" y="710" type="line"/>
      <point x="378" y="710" type="line"/>
      <point x="378" y="651" type="line"/>
      <point x="384" y="651" type="line" smooth="yes"/>
      <point x="416" y="651"/>
      <point x="449" y="641"/>
      <point x="449" y="628" type="curve"/>
      <point x="301" y="374" type="line"/>
      <point x="323" y="375" type="line"/>
      <point x="161" y="640" type="line"/>
      <point x="161" y="647"/>
      <point x="190" y="651"/>
      <point x="221" y="651" type="curve" smooth="yes"/>
      <point x="234" y="651" type="line"/>
      <point x="234" y="710" type="line"/>
      <point x="13" y="710" type="line"/>
      <point x="13" y="651" type="line"/>
      <point x="22" y="651" type="line" smooth="yes"/>
      <point x="51" y="651"/>
      <point x="67" y="646"/>
      <point x="85" y="617" type="curve" smooth="yes"/>
      <point x="267" y="333" type="line"/>
    </contour>
  </outline>
</glyph>
<glyph name="logicalnot" format="2">
  <advance width="594"/>
  <unicode hex="00AC"/>
  <outline>
    <contour>
      <point x="457" y="393" type="line"/>
      <point x="457" y="153" type="line"/>
      <point x="524" y="153" type="line"/>
      <point x="524" y="413" type="line"/>
      <point x="70" y="413" type="line"/>
      <point x="70" y="352" type="line"/>
      <point x="503" y="352" type="line"/>
    </contour>
  </outline>
</glyph>
<glyph name="acute" format="2">
  <advance width="530"/>
  <unicode hex="00B4"/>
  <anchor x="275" y="633" name="_top"/>
  <outline>
    <contour>
      <point x="282" y="807" type="curve" smooth="yes"/>
      <point x="217" y="686" type="line"/>
      <point x="217" y="661" type="line"/>
      <point x="247" y="661" type="line"/>
      <point x="368" y="752" type="line" smooth="yes"/>
      <point x="396" y="772"/>
      <point x="416" y="796"/>
      <point x="416" y="821" type="curve" smooth="yes"/>
      <point x="416" y="847"/>
      <point x="395" y="869"/>
      <point x="360" y="869" type="curve" smooth="yes"/>
      <point x="322" y="869"/>
      <point x="300" y="842"/>
    </contour>
  </outline>
</glyph>
<glyph name="cedilla" format="2">
  <advance width="530"/>
  <unicode hex="00B8"/>
  <anchor x="269" y="34" name="_bottom"/>
  <outline>
    <contour>
      <point x="326" y="5" type="line"/>
      <point x="238" y="5" type="line"/>
      <point x="194" y="-120" type="line"/>
      <point x="235" y="-120" type="line" smooth="yes"/>
      <point x="310" y="-120"/>
      <point x="330" y="-140"/>
      <point x="330" y="-180" type="curve" smooth="yes"/>
      <point x="330" y="-222"/>
      <point x="305" y="-241"/>
      <point x="259" y="-241" type="curve" smooth="yes"/>
      <point x="204" y="-241"/>
      <point x="177" y="-208"/>
      <point x="157" y="-188" type="curve"/>
      <point x="114" y="-224" type="line"/>
      <point x="140" y="-258"/>
      <point x="187" y="-289"/>
      <point x="259" y="-289" type="curve" smooth="yes"/>
      <point x="334" y="-289"/>
      <point x="410" y="-258"/>
      <point x="410" y="-177" type="curve" smooth="yes"/>
      <point x="410" y="-102"/>
      <point x="352" y="-71"/>
      <point x="239" y="-71" type="curve"/>
      <point x="234" y="-90" type="line"/>
    </contour>
  </outline>
</glyph>
<glyph name="AE" format="2">
  <advance width="1165"/>
  <unicode hex="00C6"/>
  <anchor x="696" y="741" name="top"/>
  <outline>
    <contour>
      <point x="260" y="293" type="line"/>
      <point x="239" y="235" type="line"/>
      <point x="631" y="235" type="line"/>
      <point x="611" y="293" type="line"/>
    </contour>
    <contour>
      <point x="652" y="393" type="curve"/>
      <point x="652" y="338" type="line"/>
      <point x="756" y="332"/>
      <point x="859" y="327"/>
      <point x="961" y="323" type="curve"/>
      <point x="961" y="407" type="line"/>
      <point x="854" y="400"/>
      <point x="751" y="395"/>
    </contour>
    <contour>
      <point x="477" y="0" type="line"/>
      <point x="1087" y="0" type="line"/>
      <point x="1087" y="226" type="line"/>
      <point x="1020" y="226" type="line"/>
      <point x="1004" y="104" type="line" smooth="yes"/>
      <point x="999" y="68"/>
      <point x="963" y="59"/>
      <point x="872" y="59" type="curve" smooth="yes"/>
      <point x="671" y="59" type="line"/>
      <point x="671" y="651" type="line"/>
      <point x="855" y="651" type="line" smooth="yes"/>
      <point x="946" y="651"/>
      <point x="982" y="642"/>
      <point x="987" y="606" type="curve" smooth="yes"/>
      <point x="1001" y="509" type="line"/>
      <point x="1066" y="509" type="line"/>
      <point x="1066" y="710" type="line"/>
      <point x="340" y="710" type="line"/>
      <point x="340" y="650" type="line"/>
      <point x="351" y="650" type="line" smooth="yes"/>
      <point x="403" y="650"/>
      <point x="442" y="643"/>
      <point x="442" y="614" type="curve"/>
      <point x="117" y="124" type="line" smooth="yes"/>
      <point x="86" y="78"/>
      <point x="57" y="60"/>
      <point x="13" y="60" type="curve" smooth="yes"/>
      <point x="7" y="60" type="line"/>
      <point x="7" y="0" type="line"/>
      <point x="280" y="0" type="line"/>
      <point x="280" y="60" type="line"/>
      <point x="270" y="60" type="line" smooth="yes"/>
      <point x="210" y="60"/>
      <point x="174" y="70"/>
      <point x="174" y="83" type="curve"/>
      <point x="553" y="657" type="line"/>
      <point x="579" y="657" type="line"/>
      <point x="579" y="85" type="line" smooth="yes"/>
      <point x="579" y="70"/>
      <point x="543" y="60"/>
      <point x="484" y="60" type="curve" smooth="yes"/>
      <point x="477" y="60" type="line"/>
    </contour>
  </outline>
</glyph>
<glyph name="germandbls" format="2">
  <advance width="732"/>
  <unicode hex="00DF"/>
  <outline>
    <contour>
      <point x="51" y="564" type="line"/>
      <point x="51" y="504" type="line"/>
      <point x="211" y="504" type="line"/>
      <point x="211" y="564" type="line"/>
    </contour>
    <contour>
      <point x="404" y="436" type="line"/>
      <point x="512" y="442"/>
      <point x="625" y="490"/>
      <point x="625" y="624" type="curve" smooth="yes"/>
      <point x="625" y="727"/>
      <point x="552" y="790"/>
      <point x="405" y="790" type="curve" smooth="yes"/>
      <point x="281" y="790"/>
      <point x="174" y="748"/>
      <point x="174" y="609" type="curve" smooth="yes"/>
      <point x="174" y="125" type="line" smooth="yes"/>
      <point x="174" y="65"/>
      <point x="139" y="49"/>
      <point x="76" y="49" type="curve" smooth="yes"/>
      <point x="51" y="49" type="line"/>
      <point x="51" y="0" type="line"/>
      <point x="262" y="0" type="line"/>
      <point x="262" y="609" type="line" smooth="yes"/>
      <point x="262" y="707"/>
      <point x="312" y="732"/>
      <point x="404" y="732" type="curve" smooth="yes"/>
      <point x="496" y="732"/>
      <point x="537" y="696"/>
      <point x="537" y="620" type="curve" smooth="yes"/>
      <point x="537" y="493"/>
      <point x="469" y="477"/>
      <point x="384" y="469" type="curve"/>
      <point x="384" y="398" type="line"/>
      <point x="386" y="398" type="line" smooth="yes"/>
      <point x="506" y="398"/>
      <point x="580" y="341"/>
      <point x="580" y="201" type="curve" smooth="yes"/>
      <point x="580" y="81"/>
      <point x="532" y="49"/>
      <point x="467" y="49" type="curve" smooth="yes"/>
      <point x="426" y="49"/>
      <point x="393" y="61"/>
      <point x="384" y="64" type="curve"/>
      <point x="384" y="3" type="line"/>
      <point x="401" y="-4"/>
      <point x="428" y="-10"/>
      <point x="472" y="-10" type="curve" smooth="yes"/>
      <point x="573" y="-10"/>
      <point x="674" y="40"/>
      <point x="674" y="207" type="curve" smooth="yes"/>
      <point x="674" y="354"/>
      <point x="565" y="426"/>
      <point x="424" y="438" type="curve"/>
      <point x="446" y="424" type="line"/>
      <point x="446" y="451" type="line"/>
    </contour>
  </outline>
</glyph>
<glyph name="dcroat" format="2">
  <advance width="743"/>
  <unicode hex="0111"/>
  <outline>
    <contour>
      <point x="707" y="706" type="line"/>
      <point x="271" y="706" type="line"/>
      <point x="271" y="650" type="line"/>
      <point x="707" y="650" type="line"/>
    </contour>
    <contour>
      <point x="321" y="575" type="curve" smooth="yes"/>
      <point x="147" y="575"/>
      <point x="53" y="449"/>
      <point x="53" y="277" type="curve" smooth="yes"/>
      <point x="53" y="105"/>
      <point x="137" y="-13"/>
      <point x="308" y="-13" type="curve" smooth="yes"/>
      <point x="414" y="-13"/>
      <point x="486" y="45"/>
      <point x="544" y="136" type="curve"/>
      <point x="541" y="174" type="line"/>
      <point x="475" y="90"/>
      <point x="412" y="50"/>
      <point x="319" y="50" type="curve" smooth="yes"/>
      <point x="196" y="50"/>
      <point x="147" y="126"/>
      <point x="147" y="277" type="curve" smooth="yes"/>
      <point x="147" y="437"/>
      <point x="208" y="512"/>
      <point x="329" y="512" type="curve" smooth="yes"/>
      <point x="419" y="512"/>
      <point x="478" y="468"/>
      <point x="538" y="384" type="curve"/>
      <point x="545" y="425" type="line"/>
      <point x="492" y="517"/>
      <point x="422" y="575"/>
    </contour>
    <contour>
      <point x="524" y="780" type="line"/>
      <point x="524" y="125" type="line"/>
      <point x="524" y="124" type="line"/>
      <point x="550" y="0" type="line"/>
      <point x="710" y="0" type="line"/>
      <point x="710" y="56" type="line"/>
      <point x="699" y="58" type="line" smooth="yes"/>
      <point x="645" y="68"/>
      <point x="613" y="74"/>
      <point x="613" y="103" type="curve" smooth="yes"/>
      <point x="613" y="780" type="line"/>
    </contour>
  </outline>
</glyph>
<glyph name="Hbar" format="2">
  <advance width="917"/>
  <unicode hex="0126"/>
  <outline>
    <contour>
      <point x="53" y="484" type="line"/>
      <point x="863" y="484" type="line"/>
      <point x="863" y="536" type="line"/>
      <point x="53" y="536" type="line"/>
    </contour>
    <contour>
      <point x="237" y="366" type="line"/>
      <point x="237" y="314" type="line"/>
      <point x="681" y="314" type="line"/>
      <point x="681" y="366" type="line"/>
    </contour>
    <contour>
      <point x="62" y="0" type="line"/>
      <point x="358" y="0" type="line"/>
      <point x="358" y="60" type="line"/>
      <point x="349" y="60" type="line" smooth="yes"/>
      <point x="308" y="60"/>
      <point x="257" y="63"/>
      <point x="257" y="70" type="curve" smooth="yes"/>
      <point x="257" y="640" type="line" smooth="yes"/>
      <point x="257" y="647"/>
      <point x="308" y="650"/>
      <point x="349" y="650" type="curve" smooth="yes"/>
      <point x="358" y="650" type="line"/>
      <point x="358" y="710" type="line"/>
      <point x="62" y="710" type="line"/>
      <point x="62" y="650" type="line"/>
      <point x="74" y="650" type="line" smooth="yes"/>
      <point x="126" y="650"/>
      <point x="164" y="643"/>
      <point x="164" y="614" type="curve" smooth="yes"/>
      <point x="164" y="96" type="line" smooth="yes"/>
      <point x="164" y="67"/>
      <point x="126" y="60"/>
      <point x="74" y="60" type="curve" smooth="yes"/>
      <point x="62" y="60" type="line"/>
    </contour>
    <contour>
      <point x="558" y="0" type="line"/>
      <point x="854" y="0" type="line"/>
      <point x="854" y="60" type="line"/>
      <point x="843" y="60" type="line" smooth="yes"/>
      <point x="791" y="60"/>
      <point x="752" y="67"/>
      <point x="752" y="96" type="curve" smooth="yes"/>
      <point x="752" y="614" type="line" smooth="yes"/>
      <point x="752" y="643"/>
      <point x="791" y="650"/>
      <point x="843" y="650" type="curve" smooth="yes"/>
      <point x="854" y="650" type="line"/>
      <point x="854" y="710" type="line"/>
      <point x="558" y="710" type="line"/>
      <point x="558" y="650" type="line"/>
      <point x="568" y="650" type="line" smooth="yes"/>
      <point x="608" y="650"/>
      <point x="660" y="647"/>
      <point x="660" y="640" type="curve" smooth="yes"/>
      <point x="660" y="70" type="line" smooth="yes"/>
      <point x="660" y="63"/>
      <point x="608" y="60"/>
      <point x="568" y="60" type="curve" smooth="yes"/>
      <point x="558" y="60" type="line"/>
    </contour>
  </outline>
</glyph>
<glyph name="OE" format="2">
  <advance width="1185"/>
  <unicode hex="0152"/>
  <outline>
    <contour>
      <point x="471" y="59" type="line" smooth="yes"/>
      <point x="262" y="59"/>
      <point x="164" y="143"/>
      <point x="164" y="351" type="curve" smooth="yes"/>
      <point x="164" y="559"/>
      <point x="262" y="651"/>
      <point x="471" y="651" type="curve" smooth="yes"/>
      <point x="599" y="651" type="line"/>
      <point x="599" y="59" type="line"/>
    </contour>
    <contour>
      <point x="673" y="393" type="curve"/>
      <point x="673" y="338" type="line"/>
      <point x="776" y="333"/>
      <point x="879" y="328"/>
      <point x="982" y="323" type="curve"/>
      <point x="982" y="407" type="line"/>
      <point x="879" y="402"/>
      <point x="776" y="397"/>
    </contour>
    <contour>
      <point x="1108" y="0" type="line"/>
      <point x="1108" y="226" type="line"/>
      <point x="1040" y="226" type="line"/>
      <point x="1024" y="104" type="line" smooth="yes"/>
      <point x="1019" y="68"/>
      <point x="983" y="59"/>
      <point x="892" y="59" type="curve" smooth="yes"/>
      <point x="692" y="59" type="line"/>
      <point x="692" y="651" type="line"/>
      <point x="875" y="651" type="line" smooth="yes"/>
      <point x="966" y="651"/>
      <point x="1002" y="642"/>
      <point x="1008" y="606" type="curve" smooth="yes"/>
      <point x="1021" y="509" type="line"/>
      <point x="1086" y="509" type="line"/>
      <point x="1086" y="710" type="line"/>
      <point x="471" y="710" type="line" smooth="yes"/>
      <point x="212" y="710"/>
      <point x="65" y="588"/>
      <point x="65" y="351" type="curve" smooth="yes"/>
      <point x="65" y="113"/>
      <point x="212" y="0"/>
      <point x="471" y="0" type="curve" smooth="yes"/>
    </contour>
  </outline>
</glyph>
<glyph name="tbar" format="2">
  <advance width="503"/>
  <unicode hex="0167"/>
  <outline>
    <contour>
      <point x="22" y="274" type="line"/>
      <point x="446" y="274" type="line"/>
      <point x="446" y="335" type="line"/>
      <point x="22" y="335" type="line"/>
    </contour>
    <component base="t"/>
  </outline>
</glyph>
<glyph name="circumflex" format="2">
  <advance width="530"/>
  <unicode hex="02C6"/>
  <anchor x="261" y="530" name="_top"/>
  <outline>
    <contour>
      <point x="301" y="847" type="line"/>
      <point x="444" y="676" type="line"/>
      <point x="444" y="656" type="line"/>
      <point x="398" y="656" type="line"/>
      <point x="206" y="805" type="line"/>
      <point x="319" y="810" type="line"/>
      <point x="126" y="656" type="line"/>
      <point x="89" y="656" type="line"/>
      <point x="89" y="676" type="line"/>
      <point x="230" y="847" type="line"/>
    </contour>
  </outline>
</glyph>
<glyph name="breve" format="2">
  <advance width="530"/>
  <unicode hex="02D8"/>
  <anchor x="265" y="517" name="_top"/>
  <outline>
    <contour>
      <point x="265" y="666" type="curve" smooth="yes"/>
      <point x="151" y="666"/>
      <point x="100" y="706"/>
      <point x="100" y="832" type="curve"/>
      <point x="171" y="832" type="line"/>
      <point x="173" y="750"/>
      <point x="190" y="737"/>
      <point x="268" y="737" type="curve" smooth="yes"/>
      <point x="346" y="737"/>
      <point x="362" y="750"/>
      <point x="364" y="832" type="curve"/>
      <point x="430" y="832" type="line"/>
      <point x="430" y="706"/>
      <point x="379" y="666"/>
    </contour>
  </outline>
</glyph>
<glyph name="Germandbls" format="2">
  <advance width="932"/>
  <unicode hex="1E9E"/>
  <outline>
    <contour>
      <point x="645" y="45" type="curve" smooth="yes"/>
      <point x="522" y="45"/>
      <point x="483" y="113"/>
      <point x="458" y="230" type="curve"/>
      <point x="382" y="230" type="line"/>
      <point x="382" y="0" type="line"/>
      <point x="452" y="0" type="line"/>
      <point x="462" y="145" type="line"/>
      <point x="467" y="190"/>
      <point x="456" y="192"/>
      <point x="449" y="190" type="curve"/>
      <point x="459" y="49"/>
      <point x="516" y="-14"/>
      <point x="645" y="-14" type="curve" smooth="yes"/>
      <point x="796" y="-14"/>
      <point x="867" y="63"/>
      <point x="867" y="186" type="curve" smooth="yes"/>
      <point x="867" y="345"/>
      <point x="736" y="378"/>
      <point x="564" y="421" type="curve"/>
      <point x="600" y="400" type="line"/>
      <point x="773" y="634" type="line"/>
      <point x="773" y="710" type="line"/>
      <point x="423" y="710" type="line" smooth="yes"/>
      <point x="223" y="710"/>
      <point x="156" y="622"/>
      <point x="156" y="460" type="curve" smooth="yes"/>
      <point x="156" y="96" type="line" smooth="yes"/>
      <point x="156" y="67"/>
      <point x="118" y="60"/>
      <point x="66" y="60" type="curve" smooth="yes"/>
      <point x="54" y="60" type="line"/>
      <point x="54" y="0" type="line"/>
      <point x="248" y="0" type="line"/>
      <point x="248" y="467" type="line" smooth="yes"/>
      <point x="248" y="576"/>
      <point x="270" y="651"/>
      <point x="423" y="651" type="curve" smooth="yes"/>
      <point x="727" y="651" type="line"/>
      <point x="737" y="657"/>
      <point x="718" y="667"/>
      <point x="698" y="664" type="curve"/>
      <point x="526" y="431" type="line"/>
      <point x="526" y="373" type="line"/>
      <point x="699" y="326"/>
      <point x="775" y="312"/>
      <point x="775" y="184" type="curve" smooth="yes"/>
      <point x="775" y="87"/>
      <point x="748" y="45"/>
    </contour>
  </outline>
</glyph>
<glyph name="quoteright" format="2">
  <advance width="315"/>
  <unicode hex="2019"/>
  <outline>
    <contour>
      <point x="108" y="472" type="line"/>
      <point x="197" y="512"/>
      <point x="246" y="564"/>
      <point x="246" y="686" type="curve" smooth="yes"/>
      <point x="246" y="752"/>
      <point x="220" y="780"/>
      <point x="163" y="780" type="curve" smooth="yes"/>
      <point x="113" y="780"/>
      <point x="87" y="755"/>
      <point x="87" y="720" type="curve" smooth="yes"/>
      <point x="87" y="682"/>
      <point x="115" y="664"/>
      <point x="155" y="664" type="curve" smooth="yes"/>
      <point x="174" y="664"/>
      <point x="194" y="667"/>
      <point x="211" y="679" type="curve"/>
      <point x="189" y="679" type="line"/>
      <point x="189" y="580"/>
      <point x="140" y="554"/>
      <point x="51" y="524" type="curve"/>
    </contour>
  </outline>
</glyph>
<glyph name="dagger" format="2">
  <advance width="592"/>
  <unicode hex="2020"/>
  <outline>
    <contour>
      <point x="278" y="480" type="line"/>
      <point x="314" y="480" type="line"/>
      <point x="510" y="424" type="line"/>
      <point x="542" y="424" type="line"/>
      <point x="542" y="544" type="line"/>
      <point x="510" y="544" type="line"/>
      <point x="314" y="509" type="line"/>
      <point x="278" y="509" type="line"/>
      <point x="82" y="544" type="line"/>
      <point x="50" y="544" type="line"/>
      <point x="50" y="424" type="line"/>
      <point x="82" y="424" type="line"/>
    </contour>
    <contour>
      <point x="358" y="710" type="line"/>
      <point x="234" y="710" type="line"/>
      <point x="234" y="663" type="line" smooth="yes"/>
      <point x="234" y="614"/>
      <point x="267" y="588"/>
      <point x="267" y="499" type="curve" smooth="yes"/>
      <point x="267" y="403"/>
      <point x="249" y="372"/>
      <point x="230" y="345" type="curve"/>
      <point x="230" y="315" type="line" smooth="yes"/>
      <point x="230" y="274"/>
      <point x="263" y="210"/>
      <point x="265" y="-20" type="curve"/>
      <point x="327" y="-20" type="line"/>
      <point x="330" y="210"/>
      <point x="362" y="274"/>
      <point x="362" y="315" type="curve" smooth="yes"/>
      <point x="362" y="345" type="line"/>
      <point x="343" y="372"/>
      <point x="325" y="403"/>
      <point x="325" y="499" type="curve" smooth="yes"/>
      <point x="325" y="588"/>
      <point x="358" y="614"/>
      <point x="358" y="663" type="curve" smooth="yes"/>
    </contour>
  </outline>
</glyph>
<glyph name="bullet" format="2">
  <advance width="548"/>
  <unicode hex="2022"/>
  <outline>
    <contour>
      <point x="109" y="340" type="curve" smooth="yes"/>
      <point x="109" y="252"/>
      <point x="178" y="192"/>
      <point x="274" y="192" type="curve" smooth="yes"/>
      <point x="370" y="192"/>
      <point x="440" y="252"/>
      <point x="440" y="340" type="curve" smooth="yes"/>
      <point x="440" y="428"/>
      <point x="370" y="487"/>
      <point x="274" y="487" type="curve" smooth="yes"/>
      <point x="178" y="487"/>
      <point x="109" y="428"/>
    </contour>
  </outline>
</glyph>
<glyph name="franc" format="2">
  <advance width="594"/>
  <unicode hex="20A3"/>
  <outline>
    <contour>
      <point x="216" y="651" type="line"/>
      <point x="348" y="651" type="line" smooth="yes"/>
      <point x="440" y="651"/>
      <point x="474" y="642"/>
      <point x="481" y="606" type="curve" smooth="yes"/>
      <point x="495" y="536" type="line"/>
      <point x="559" y="536" type="line"/>
      <point x="559" y="710" type="line"/>
      <point x="35" y="710" type="line"/>
      <point x="35" y="650" type="line"/>
      <point x="47" y="650" type="line" smooth="yes"/>
      <point x="99" y="650"/>
      <point x="124" y="643"/>
      <point x="124" y="614" type="curve" smooth="yes"/>
      <point x="124" y="96" type="line" smooth="yes"/>
      <point x="124" y="67"/>
      <point x="99" y="60"/>
      <point x="47" y="60" type="curve" smooth="yes"/>
      <point x="35" y="60" type="line"/>
      <point x="35" y="0" type="line"/>
      <point x="338" y="0" type="line"/>
      <point x="338" y="60" type="line"/>
      <point x="317" y="60" type="line" smooth="yes"/>
      <point x="266" y="60"/>
      <point x="216" y="63"/>
      <point x="216" y="70" type="curve" smooth="yes"/>
    </contour>
    <contour>
      <point x="35" y="260" type="line"/>
      <point x="35" y="207" type="line"/>
      <point x="399" y="207" type="line"/>
      <point x="399" y="260" type="line"/>
    </contour>
    <contour>
      <point x="198" y="432" type="curve"/>
      <point x="198" y="377" type="line"/>
      <point x="289" y="372"/>
      <point x="380" y="368"/>
      <point x="471" y="363" type="curve"/>
      <point x="471" y="446" type="line"/>
      <point x="380" y="442"/>
      <point x="289" y="437"/>
    </contour>
  </outline>
</glyph>
<glyph name="naira" format="2">
  <advance width="594"/>
  <unicode hex="20A6"/>
  <outline>
    <contour>
      <point x="37" y="0" type="line"/>
      <point x="243" y="0" type="line"/>
      <point x="243" y="59" type="line"/>
      <point x="229" y="59" type="line" smooth="yes"/>
      <point x="196" y="59"/>
      <point x="173" y="65"/>
      <point x="173" y="72" type="curve" smooth="yes"/>
      <point x="173" y="696" type="line"/>
      <point x="168" y="698" type="line"/>
      <point x="380" y="0" type="line"/>
      <point x="474" y="0" type="line"/>
      <point x="474" y="610" type="line" smooth="yes"/>
      <point x="474" y="639"/>
      <point x="501" y="651"/>
      <point x="536" y="651" type="curve" smooth="yes"/>
      <point x="557" y="651" type="line"/>
      <point x="557" y="710" type="line"/>
      <point x="353" y="710" type="line"/>
      <point x="353" y="651" type="line"/>
      <point x="368" y="651" type="line" smooth="yes"/>
      <point x="401" y="651"/>
      <point x="420" y="645"/>
      <point x="420" y="638" type="curve" smooth="yes"/>
      <point x="420" y="35" type="line"/>
      <point x="432" y="18" type="line"/>
      <point x="224" y="710" type="line"/>
      <point x="37" y="710" type="line"/>
      <point x="37" y="651" type="line"/>
      <point x="58" y="651" type="line" smooth="yes"/>
      <point x="93" y="651"/>
      <point x="120" y="644"/>
      <point x="120" y="615" type="curve" smooth="yes"/>
      <point x="120" y="100" type="line" smooth="yes"/>
      <point x="120" y="71"/>
      <point x="93" y="59"/>
      <point x="58" y="59" type="curve" smooth="yes"/>
      <point x="37" y="59" type="line"/>
    </contour>
    <contour>
      <point x="145" y="493" type="line"/>
      <point x="8" y="493" type="line"/>
      <point x="8" y="429" type="line"/>
      <point x="143" y="429" type="line"/>
    </contour>
    <contour>
      <point x="586" y="429" type="line"/>
      <point x="586" y="493" type="line"/>
      <point x="277" y="493" type="line"/>
      <point x="276" y="468" type="line"/>
      <point x="440" y="441" type="line"/>
      <point x="452" y="429" type="line"/>
    </contour>
    <contour>
      <point x="8" y="214" type="line"/>
      <point x="332" y="214" type="line"/>
      <point x="332" y="239" type="line"/>
      <point x="149" y="265" type="line"/>
      <point x="149" y="278" type="line"/>
      <point x="8" y="278" type="line"/>
    </contour>
    <contour>
      <point x="445" y="214" type="line"/>
      <point x="586" y="214" type="line"/>
      <point x="586" y="278" type="line"/>
      <point x="447" y="278" type="line"/>
    </contour>
  </outline>
</glyph>
<glyph name="peso" format="2">
  <advance width="594"/>
  <unicode hex="20B1"/>
  <outline>
    <contour>
      <point x="25" y="0" type="line"/>
      <point x="283" y="0" type="line"/>
      <point x="283" y="59" type="line"/>
      <point x="260" y="59" type="line" smooth="yes"/>
      <point x="228" y="59"/>
      <point x="189" y="62"/>
      <point x="189" y="69" type="curve" smooth="yes"/>
      <point x="189" y="219" type="line"/>
      <point x="244" y="219" type="line" smooth="yes"/>
      <point x="410" y="219"/>
      <point x="503" y="306"/>
      <point x="503" y="469" type="curve" smooth="yes"/>
      <point x="503" y="633"/>
      <point x="414" y="710"/>
      <point x="250" y="710" type="curve" smooth="yes"/>
      <point x="25" y="710" type="line"/>
      <point x="25" y="651" type="line"/>
      <point x="36" y="651" type="line" smooth="yes"/>
      <point x="76" y="651"/>
      <point x="105" y="644"/>
      <point x="105" y="615" type="curve" smooth="yes"/>
      <point x="105" y="95" type="line" smooth="yes"/>
      <point x="105" y="66"/>
      <point x="76" y="59"/>
      <point x="36" y="59" type="curve" smooth="yes"/>
      <point x="25" y="59" type="line"/>
    </contour>
    <contour>
      <point x="249" y="651" type="line" smooth="yes"/>
      <point x="378" y="651"/>
      <point x="419" y="601"/>
      <point x="419" y="468" type="curve" smooth="yes"/>
      <point x="419" y="336"/>
      <point x="378" y="276"/>
      <point x="243" y="276" type="curve" smooth="yes"/>
      <point x="189" y="276" type="line"/>
      <point x="189" y="651" type="line"/>
    </contour>
    <contour>
      <point x="25" y="499" type="line"/>
      <point x="25" y="435" type="line"/>
      <point x="136" y="435" type="line"/>
      <point x="161" y="448" type="line"/>
      <point x="449" y="448" type="line"/>
      <point x="465" y="435" type="line"/>
      <point x="595" y="435" type="line"/>
      <point x="595" y="499" type="line"/>
      <point x="478" y="499" type="line"/>
      <point x="443" y="486" type="line"/>
      <point x="158" y="486" type="line"/>
      <point x="140" y="499" type="line"/>
    </contour>
  </outline>
</glyph>
<glyph name="ruble" format="2">
  <advance width="594"/>
  <unicode hex="20BD"/>
  <outline>
    <contour>
      <point x="34" y="403" type="line"/>
      <point x="352" y="403" type="line" smooth="yes"/>
      <point x="441" y="403"/>
      <point x="484" y="447"/>
      <point x="484" y="531" type="curve" smooth="yes"/>
      <point x="484" y="613"/>
      <point x="441" y="651"/>
      <point x="358" y="651" type="curve" smooth="yes"/>
      <point x="222" y="651" type="line"/>
      <point x="222" y="69" type="line" smooth="yes"/>
      <point x="222" y="62"/>
      <point x="267" y="59"/>
      <point x="304" y="59" type="curve" smooth="yes"/>
      <point x="332" y="59" type="line"/>
      <point x="332" y="0" type="line"/>
      <point x="34" y="0" type="line"/>
      <point x="34" y="59" type="line"/>
      <point x="46" y="59" type="line" smooth="yes"/>
      <point x="98" y="59"/>
      <point x="136" y="66"/>
      <point x="136" y="95" type="curve" smooth="yes"/>
      <point x="136" y="615" type="line" smooth="yes"/>
      <point x="136" y="644"/>
      <point x="98" y="651"/>
      <point x="46" y="651" type="curve" smooth="yes"/>
      <point x="34" y="651" type="line"/>
      <point x="34" y="710" type="line"/>
      <point x="350" y="710" type="line" smooth="yes"/>
      <point x="487" y="710"/>
      <point x="574" y="645"/>
      <point x="574" y="532" type="curve" smooth="yes"/>
      <point x="574" y="420"/>
      <point x="482" y="349"/>
      <point x="345" y="349" type="curve" smooth="yes"/>
      <point x="34" y="349" type="line"/>
    </contour>
    <contour>
      <point x="441" y="179" type="line"/>
      <point x="34" y="179" type="line"/>
      <point x="34" y="232" type="line"/>
      <point x="441" y="232" type="line"/>
    </contour>
  </outline>
</glyph>
<glyph name="estimated" format="2">
  <advance width="933"/>
  <unicode hex="212E"/>
  <outline>
    <contour>
      <point x="214" y="166" type="line"/>
      <point x="275" y="89"/>
      <point x="363" y="43"/>
      <point x="466" y="43" type="curve" smooth="yes"/>
      <point x="618" y="43"/>
      <point x="725" y="130"/>
      <point x="778" y="244" type="curve"/>
      <point x="839" y="244" type="line"/>
      <point x="785" y="106"/>
      <point x="652" y="-10"/>
      <point x="466" y="-10" type="curve" smooth="yes"/>
      <point x="245" y="-10"/>
      <point x="74" y="150"/>
      <point x="74" y="355" type="curve" smooth="yes"/>
      <point x="74" y="560"/>
      <point x="245" y="720"/>
      <point x="466" y="720" type="curve" smooth="yes"/>
      <point x="688" y="720"/>
      <point x="859" y="560"/>
      <point x="859" y="355" type="curve"/>
      <point x="169" y="355" type="line"/>
      <point x="169" y="417" type="line"/>
      <point x="719" y="417" type="line"/>
      <point x="719" y="548" type="line"/>
      <point x="657" y="623"/>
      <point x="569" y="658"/>
      <point x="466" y="658" type="curve" smooth="yes"/>
      <point x="364" y="658"/>
      <point x="276" y="623"/>
      <point x="214" y="548" type="curve"/>
    </contour>
  </outline>
</glyph>
<glyph name="summation" format="2">
  <advance width="617"/>
  <unicode hex="2211"/>
  <outline>
    <contour>
      <point x="31" y="-223" type="line"/>
      <point x="31" y="-139" type="line"/>
      <point x="320" y="274" type="line"/>
      <point x="315" y="238" type="line"/>
      <point x="31" y="625" type="line"/>
      <point x="31" y="710" type="line"/>
      <point x="552" y="710" type="line"/>
      <point x="552" y="501" type="line"/>
      <point x="488" y="501" type="line"/>
      <point x="474" y="598" type="line" smooth="yes"/>
      <point x="469" y="634"/>
      <point x="433" y="643"/>
      <point x="341" y="643" type="curve" smooth="yes"/>
      <point x="92" y="643" type="line"/>
      <point x="91" y="680" type="line"/>
      <point x="376" y="298" type="line"/>
      <point x="376" y="237" type="line"/>
      <point x="82" y="-185" type="line"/>
      <point x="87" y="-156" type="line"/>
      <point x="362" y="-156" type="line" smooth="yes"/>
      <point x="453" y="-156"/>
      <point x="490" y="-147"/>
      <point x="495" y="-111" type="curve" smooth="yes"/>
      <point x="510" y="8" type="line"/>
      <point x="577" y="8" type="line"/>
      <point x="577" y="-223" type="line"/>
    </contour>
  </outline>
</glyph>
<glyph name="F.alt" format="2">
  <advance width="726"/>
  <outline>
    <contour>
      <point x="257" y="651" type="line"/>
      <point x="445" y="651" type="line" smooth="yes"/>
      <point x="536" y="651"/>
      <point x="572" y="642"/>
      <point x="578" y="606" type="curve" smooth="yes"/>
      <point x="591" y="514" type="line"/>
      <point x="656" y="514" type="line"/>
      <point x="656" y="710" type="line"/>
      <point x="62" y="710" type="line"/>
      <point x="62" y="650" type="line"/>
      <point x="74" y="650" type="line" smooth="yes"/>
      <point x="126" y="650"/>
      <point x="164" y="643"/>
      <point x="164" y="614" type="curve" smooth="yes"/>
      <point x="164" y="96" type="line" smooth="yes"/>
      <point x="164" y="67"/>
      <point x="126" y="60"/>
      <point x="74" y="60" type="curve" smooth="yes"/>
      <point x="62" y="60" type="line"/>
      <point x="62" y="0" type="line"/>
      <point x="379" y="0" type="line"/>
      <point x="379" y="60" type="line"/>
      <point x="357" y="60" type="line" smooth="yes"/>
      <point x="307" y="60"/>
      <point x="257" y="63"/>
      <point x="257" y="70" type="curve" smooth="yes"/>
    </contour>
    <contour>
      <point x="238" y="371" type="line"/>
      <point x="238" y="314" type="line"/>
      <point x="424" y="314" type="line" smooth="yes"/>
      <point x="455" y="314"/>
      <point x="465" y="289"/>
      <point x="465" y="255" type="curve" smooth="yes"/>
      <point x="465" y="235" type="line"/>
      <point x="532" y="235" type="line"/>
      <point x="532" y="451" type="line"/>
      <point x="465" y="451" type="line"/>
      <point x="465" y="431" type="line" smooth="yes"/>
      <point x="465" y="396"/>
      <point x="455" y="371"/>
      <point x="424" y="371" type="curve" smooth="yes"/>
    </contour>
  </outline>
</glyph>
<glyph name="acute.uc" format="2">
  <advance width="530"/>
  <anchor x="221" y="727" name="_top"/>
  <outline>
    <contour>
      <point x="276" y="921" type="curve" smooth="yes"/>
      <point x="182" y="818" type="line"/>
      <point x="182" y="793" type="line"/>
      <point x="221" y="793" type="line"/>
      <point x="344" y="856" type="line" smooth="yes"/>
      <point x="378" y="873"/>
      <point x="406" y="893"/>
      <point x="406" y="922" type="curve" smooth="yes"/>
      <point x="406" y="945"/>
      <point x="384" y="969"/>
      <point x="352" y="969" type="curve" smooth="yes"/>
      <point x="319" y="969"/>
      <point x="299" y="947"/>
    </contour>
  </outline>
</glyph>
<glyph name="acute.ucpl" format="2">
  <advance width="530"/>
  <anchor x="240" y="694" name="_top"/>
  <outline>
    <contour>
      <point x="248" y="905" type="curve" smooth="yes"/>
      <point x="215" y="817" type="line"/>
      <point x="215" y="793" type="line"/>
      <point x="252" y="793" type="line"/>
      <point x="330" y="858" type="line" smooth="yes"/>
      <point x="356" y="879"/>
      <point x="373" y="902"/>
      <point x="373" y="928" type="curve" smooth="yes"/>
      <point x="373" y="954"/>
      <point x="354" y="972"/>
      <point x="321" y="972" type="curve" smooth="yes"/>
      <point x="278" y="972"/>
      <point x="261" y="941"/>
    </contour>
  </outline>
</glyph>
<glyph name="breve_acute.uc" format="2">
  <advance width="574"/>
  <anchor x="260" y="744" name="_top"/>
  <outline>
    <contour>
      <point x="317" y="1100" type="curve" smooth="yes"/>
      <point x="224" y="997" type="line"/>
      <point x="224" y="972" type="line"/>
      <point x="262" y="972" type="line"/>
      <point x="385" y="1035" type="line" smooth="yes"/>
      <point x="420" y="1052"/>
      <point x="448" y="1072"/>
      <point x="448" y="1101" type="curve" smooth="yes"/>
      <point x="448" y="1124"/>
      <point x="425" y="1148"/>
      <point x="394" y="1148" type="curve" smooth="yes"/>
      <point x="360" y="1148"/>
      <point x="341" y="1126"/>
    </contour>
    <component base="breve.uc"/>
  </outline>
</glyph>
<glyph name="cent.alt" format="2">
  <advance width="593"/>
  <outline>
    <contour>
      <point x="337" y="48" type="curve" smooth="yes"/>
      <point x="193" y="48"/>
      <point x="134" y="110"/>
      <point x="134" y="282" type="curve" smooth="yes"/>
      <point x="134" y="447"/>
      <point x="194" y="514"/>
      <point x="338" y="514" type="curve"/>
      <point x="411" y="514"/>
      <point x="475" y="501"/>
      <point x="511" y="486" type="curve"/>
      <point x="509" y="493"/>
      <point x="493" y="510"/>
      <point x="464" y="510" type="curve"/>
      <point x="464" y="366" type="line"/>
      <point x="547" y="366" type="line"/>
      <point x="547" y="541" type="line"/>
      <point x="525" y="553"/>
      <point x="452" y="575"/>
      <point x="337" y="575" type="curve"/>
      <point x="147" y="575"/>
      <point x="40" y="475"/>
      <point x="40" y="282" type="curve" smooth="yes"/>
      <point x="40" y="88"/>
      <point x="146" y="-13"/>
      <point x="336" y="-13" type="curve" smooth="yes"/>
      <point x="440" y="-13"/>
      <point x="527" y="39"/>
      <point x="566" y="119" type="curve"/>
      <point x="515" y="150" type="line"/>
      <point x="481" y="90"/>
      <point x="429" y="48"/>
    </contour>
    <contour>
      <point x="361" y="555" type="line"/>
      <point x="361" y="703" type="line"/>
      <point x="281" y="703" type="line"/>
      <point x="281" y="547" type="line"/>
    </contour>
    <contour>
      <point x="281" y="11" type="line"/>
      <point x="281" y="-166" type="line"/>
      <point x="361" y="-166" type="line"/>
      <point x="361" y="19" type="line"/>
    </contour>
  </outline>
</glyph>
<glyph name="circumflex.uc" format="2">
  <advance width="530"/>
  <anchor x="261" y="694" name="_top"/>
  <outline>
    <contour>
      <point x="304" y="958" type="line"/>
      <point x="448" y="802" type="line"/>
      <point x="448" y="782" type="line"/>
      <point x="399" y="782" type="line"/>
      <point x="209" y="916" type="line"/>
      <point x="317" y="921" type="line"/>
      <point x="125" y="782" type="line"/>
      <point x="85" y="782" type="line"/>
      <point x="85" y="802" type="line"/>
      <point x="227" y="958" type="line"/>
    </contour>
  </outline>
</glyph>
<glyph name="circumflex_acute.uc" format="2">
  <advance width="590"/>
  <anchor x="265" y="749" name="_top"/>
  <outline>
    <contour>
      <point x="521" y="1039" type="curve" smooth="yes"/>
      <point x="431" y="934" type="line"/>
      <point x="431" y="909" type="line"/>
      <point x="469" y="909" type="line"/>
      <point x="588" y="974" type="line" smooth="yes"/>
      <point x="622" y="992"/>
      <point x="649" y="1012"/>
      <point x="649" y="1040" type="curve" smooth="yes"/>
      <point x="649" y="1064"/>
      <point x="627" y="1088"/>
      <point x="595" y="1088" type="curve" smooth="yes"/>
      <point x="562" y="1088"/>
      <point x="543" y="1066"/>
    </contour>
    <component base="circumflex.uc"/>
  </outline>
</glyph>
<glyph name="circumflex_grave.uc" format="2">
  <advance width="590"/>
  <anchor x="263" y="696" name="_top"/>
  <outline>
    <contour>
      <point x="500" y="1051" type="line" smooth="yes"/>
      <point x="477" y="1079"/>
      <point x="458" y="1100"/>
      <point x="426" y="1100" type="curve" smooth="yes"/>
      <point x="393" y="1100"/>
      <point x="372" y="1077"/>
      <point x="372" y="1053" type="curve" smooth="yes"/>
      <point x="372" y="1025"/>
      <point x="399" y="1005"/>
      <point x="433" y="987" type="curve" smooth="yes"/>
      <point x="552" y="922" type="line"/>
      <point x="590" y="922" type="line"/>
      <point x="590" y="947" type="line"/>
    </contour>
    <component base="circumflex.uc"/>
  </outline>
</glyph>
<glyph name="colonmonetary.proportional" format="2">
  <advance width="744"/>
  <outline>
    <contour>
      <point x="417" y="700" type="curve" smooth="yes"/>
      <point x="189" y="700"/>
      <point x="64" y="584"/>
      <point x="64" y="355" type="curve" smooth="yes"/>
      <point x="64" y="119"/>
      <point x="164" y="10"/>
      <point x="395" y="10" type="curve" smooth="yes"/>
      <point x="590" y="10"/>
      <point x="651" y="106"/>
      <point x="683" y="250" type="curve"/>
      <point x="625" y="265" type="line"/>
      <point x="594" y="147"/>
      <point x="569" y="63"/>
      <point x="401" y="63" type="curve" smooth="yes"/>
      <point x="187" y="63"/>
      <point x="149" y="147"/>
      <point x="149" y="355" type="curve" smooth="yes"/>
      <point x="149" y="558"/>
      <point x="213" y="648"/>
      <point x="414" y="648" type="curve" smooth="yes"/>
      <point x="544" y="648"/>
      <point x="614" y="621"/>
      <point x="642" y="607" type="curve"/>
      <point x="639" y="628"/>
      <point x="613" y="637"/>
      <point x="591" y="645" type="curve"/>
      <point x="591" y="469" type="line"/>
      <point x="678" y="469" type="line"/>
      <point x="678" y="652" type="line"/>
      <point x="646" y="665"/>
      <point x="550" y="700"/>
    </contour>
    <contour>
      <point x="395" y="790" type="line"/>
      <point x="360" y="668" type="line"/>
      <point x="363" y="651" type="line"/>
      <point x="201" y="93" type="line"/>
      <point x="187" y="80" type="line"/>
      <point x="131" y="-120" type="line"/>
      <point x="197" y="-120" type="line"/>
      <point x="246" y="56" type="line"/>
      <point x="242" y="68" type="line"/>
      <point x="414" y="658" type="line"/>
      <point x="430" y="681" type="line"/>
      <point x="461" y="790" type="line"/>
    </contour>
    <contour>
      <point x="547" y="790" type="line"/>
      <point x="516" y="680" type="line"/>
      <point x="520" y="663" type="line"/>
      <point x="346" y="49" type="line"/>
      <point x="333" y="39" type="line"/>
      <point x="288" y="-120" type="line"/>
      <point x="354" y="-120" type="line"/>
      <point x="395" y="28" type="line"/>
      <point x="393" y="44" type="line"/>
      <point x="567" y="656" type="line"/>
      <point x="579" y="667" type="line"/>
      <point x="613" y="790" type="line"/>
    </contour>
  </outline>
</glyph>
<glyph name="commaaccent" format="2">
  <advance width="314"/>
  <anchor x="150" y="-27" name="_bottom"/>
  <outline>
    <contour>
      <point x="92" y="-345" type="line"/>
      <point x="188" y="-316"/>
      <point x="245" y="-272"/>
      <point x="245" y="-180" type="curve" smooth="yes"/>
      <point x="245" y="-123"/>
      <point x="220" y="-91"/>
      <point x="156" y="-91" type="curve" smooth="yes"/>
      <point x="97" y="-91"/>
      <point x="78" y="-115"/>
      <point x="78" y="-146" type="curve" smooth="yes"/>
      <point x="78" y="-179"/>
      <point x="96" y="-198"/>
      <point x="145" y="-198" type="curve" smooth="yes"/>
      <point x="165" y="-198"/>
      <point x="189" y="-194"/>
      <point x="203" y="-184" type="curve"/>
      <point x="191" y="-187" type="line"/>
      <point x="191" y="-249"/>
      <point x="146" y="-269"/>
      <point x="57" y="-290" type="curve"/>
    </contour>
  </outline>
</glyph>
<glyph name="dollar.altprop" format="2">
  <advance width="661"/>
  <outline>
    <contour>
      <point x="328" y="55" type="curve" smooth="yes"/>
      <point x="235" y="55"/>
      <point x="142" y="75"/>
      <point x="97" y="92" type="curve"/>
      <point x="97" y="88"/>
      <point x="122" y="66"/>
      <point x="150" y="65" type="curve"/>
      <point x="150" y="218" type="line"/>
      <point x="60" y="218" type="line"/>
      <point x="60" y="42" type="line"/>
      <point x="91" y="28"/>
      <point x="190" y="-1"/>
      <point x="326" y="-1" type="curve" smooth="yes"/>
      <point x="506" y="-1"/>
      <point x="610" y="70"/>
      <point x="610" y="202" type="curve"/>
      <point x="610" y="357"/>
      <point x="484" y="376"/>
      <point x="363" y="402" type="curve" smooth="yes"/>
      <point x="232" y="429"/>
      <point x="153" y="437"/>
      <point x="153" y="531" type="curve" smooth="yes"/>
      <point x="153" y="614"/>
      <point x="211" y="649"/>
      <point x="335" y="649" type="curve" smooth="yes"/>
      <point x="410" y="649"/>
      <point x="498" y="636"/>
      <point x="537" y="619" type="curve"/>
      <point x="536" y="624"/>
      <point x="511" y="648"/>
      <point x="484" y="647" type="curve"/>
      <point x="484" y="493" type="line"/>
      <point x="573" y="493" type="line"/>
      <point x="573" y="669" type="line"/>
      <point x="547" y="681"/>
      <point x="458" y="704"/>
      <point x="332" y="704" type="curve" smooth="yes"/>
      <point x="168" y="704"/>
      <point x="70" y="641"/>
      <point x="70" y="523" type="curve" smooth="yes"/>
      <point x="70" y="377"/>
      <point x="174" y="356"/>
      <point x="310" y="329" type="curve" smooth="yes"/>
      <point x="420" y="306"/>
      <point x="522" y="294"/>
      <point x="522" y="196" type="curve"/>
      <point x="522" y="96"/>
      <point x="461" y="55"/>
    </contour>
    <contour>
      <point x="292" y="820" type="line"/>
      <point x="292" y="684" type="line"/>
      <point x="374" y="687" type="line"/>
      <point x="374" y="820" type="line"/>
    </contour>
    <contour>
      <point x="292" y="21" type="line"/>
      <point x="292" y="-150" type="line"/>
      <point x="374" y="-150" type="line"/>
      <point x="374" y="20" type="line"/>
    </contour>
  </outline>
</glyph>
<glyph name="dollar.proportional" format="2">
  <advance width="662"/>
  <outline>
    <contour>
      <point x="292" y="820" type="line"/>
      <point x="292" y="684" type="line"/>
      <point x="306" y="674" type="line"/>
      <point x="306" y="34" type="line"/>
      <point x="292" y="21" type="line"/>
      <point x="292" y="-150" type="line"/>
      <point x="375" y="-150" type="line"/>
      <point x="375" y="20" type="line"/>
      <point x="361" y="36" type="line"/>
      <point x="361" y="676" type="line"/>
      <point x="375" y="687" type="line"/>
      <point x="375" y="820" type="line"/>
    </contour>
    <contour>
      <point x="328" y="51" type="curve" smooth="yes"/>
      <point x="233" y="51"/>
      <point x="141" y="70"/>
      <point x="96" y="88" type="curve"/>
      <point x="96" y="84"/>
      <point x="115" y="64"/>
      <point x="143" y="63" type="curve"/>
      <point x="143" y="219" type="line"/>
      <point x="60" y="219" type="line"/>
      <point x="60" y="42" type="line"/>
      <point x="91" y="28"/>
      <point x="190" y="-1"/>
      <point x="327" y="-1" type="curve" smooth="yes"/>
      <point x="508" y="-1"/>
      <point x="611" y="69"/>
      <point x="611" y="199" type="curve" smooth="yes"/>
      <point x="611" y="353"/>
      <point x="484" y="370"/>
      <point x="363" y="395" type="curve" smooth="yes"/>
      <point x="232" y="422"/>
      <point x="144" y="424"/>
      <point x="144" y="529" type="curve" smooth="yes"/>
      <point x="144" y="617"/>
      <point x="207" y="652"/>
      <point x="331" y="652" type="curve" smooth="yes"/>
      <point x="410" y="652"/>
      <point x="500" y="639"/>
      <point x="538" y="623" type="curve"/>
      <point x="537" y="627"/>
      <point x="519" y="649"/>
      <point x="491" y="648" type="curve"/>
      <point x="491" y="493" type="line"/>
      <point x="574" y="493" type="line"/>
      <point x="574" y="669" type="line"/>
      <point x="549" y="681"/>
      <point x="458" y="704"/>
      <point x="332" y="704" type="curve" smooth="yes"/>
      <point x="167" y="704"/>
      <point x="70" y="640"/>
      <point x="70" y="529" type="curve" smooth="yes"/>
      <point x="70" y="379"/>
      <point x="174" y="362"/>
      <point x="310" y="335" type="curve" smooth="yes"/>
      <point x="421" y="313"/>
      <point x="532" y="308"/>
      <point x="532" y="197" type="curve" smooth="yes"/>
      <point x="532" y="92"/>
      <point x="465" y="51"/>
    </contour>
  </outline>
</glyph>
<glyph name="dong.proportional" format="2">
  <advance width="721"/>
  <outline>
    <contour>
      <point x="151" y="278" type="curve" smooth="yes"/>
      <point x="151" y="438"/>
      <point x="207" y="513"/>
      <point x="322" y="513" type="curve" smooth="yes"/>
      <point x="406" y="513"/>
      <point x="463" y="475"/>
      <point x="523" y="390" type="curve"/>
      <point x="526" y="426" type="line"/>
      <point x="475" y="518"/>
      <point x="412" y="576"/>
      <point x="314" y="576" type="curve" smooth="yes"/>
      <point x="146" y="576"/>
      <point x="57" y="449"/>
      <point x="57" y="278" type="curve" smooth="yes"/>
      <point x="57" y="107"/>
      <point x="138" y="-12"/>
      <point x="303" y="-12" type="curve" smooth="yes"/>
      <point x="408" y="-12"/>
      <point x="473" y="46"/>
      <point x="526" y="136" type="curve"/>
      <point x="524" y="179" type="line"/>
      <point x="463" y="88"/>
      <point x="402" y="51"/>
      <point x="313" y="51" type="curve" smooth="yes"/>
      <point x="198" y="51"/>
      <point x="151" y="126"/>
    </contour>
    <contour>
      <point x="505" y="780" type="line"/>
      <point x="505" y="124" type="line"/>
      <point x="504" y="124" type="line"/>
      <point x="530" y="0" type="line"/>
      <point x="690" y="0" type="line"/>
      <point x="690" y="56" type="line"/>
      <point x="679" y="58" type="line" smooth="yes"/>
      <point x="625" y="68"/>
      <point x="593" y="74"/>
      <point x="593" y="103" type="curve" smooth="yes"/>
      <point x="593" y="780" type="line"/>
    </contour>
    <contour>
      <point x="92" y="-112" type="line"/>
      <point x="92" y="-171" type="line"/>
      <point x="665" y="-171" type="line"/>
      <point x="665" y="-112" type="line"/>
    </contour>
    <contour>
      <point x="264" y="706" type="line"/>
      <point x="264" y="650" type="line"/>
      <point x="689" y="650" type="line"/>
      <point x="689" y="706" type="line"/>
    </contour>
  </outline>
</glyph>
<glyph name="f.alt" format="2">
  <advance width="490"/>
  <outline>
    <contour>
      <point x="51" y="565" type="line"/>
      <point x="51" y="506" type="line"/>
      <point x="444" y="506" type="line"/>
      <point x="444" y="565" type="line"/>
    </contour>
    <contour>
      <point x="372" y="730" type="curve" smooth="yes"/>
      <point x="434" y="730"/>
      <point x="474" y="718"/>
      <point x="499" y="706" type="curve"/>
      <point x="494" y="715"/>
      <point x="481" y="733"/>
      <point x="445" y="734" type="curve"/>
      <point x="445" y="652" type="line"/>
      <point x="534" y="652" type="line"/>
      <point x="534" y="759" type="line"/>
      <point x="508" y="774"/>
      <point x="449" y="790"/>
      <point x="373" y="790" type="curve" smooth="yes"/>
      <point x="263" y="790"/>
      <point x="174" y="758"/>
      <point x="174" y="631" type="curve" smooth="yes"/>
      <point x="174" y="125" type="line" smooth="yes"/>
      <point x="174" y="65"/>
      <point x="139" y="49"/>
      <point x="76" y="49" type="curve" smooth="yes"/>
      <point x="51" y="49" type="line"/>
      <point x="51" y="0" type="line"/>
      <point x="396" y="0" type="line"/>
      <point x="396" y="49" type="line"/>
      <point x="358" y="49" type="line" smooth="yes"/>
      <point x="325" y="49"/>
      <point x="262" y="52"/>
      <point x="262" y="59" type="curve" smooth="yes"/>
      <point x="262" y="623" type="line" smooth="yes"/>
      <point x="262" y="701"/>
      <point x="295" y="730"/>
    </contour>
  </outline>
</glyph>
<glyph name="f.short" format="2">
  <advance width="461"/>
  <outline>
    <contour>
      <point x="51" y="565" type="line"/>
      <point x="51" y="506" type="line"/>
      <point x="443" y="506" type="line"/>
      <point x="443" y="565" type="line"/>
    </contour>
    <contour>
      <point x="262" y="59" type="curve" smooth="yes"/>
      <point x="262" y="627" type="line" smooth="yes"/>
      <point x="262" y="702"/>
      <point x="292" y="724"/>
      <point x="363" y="724" type="curve"/>
      <point x="403" y="724"/>
      <point x="440" y="717"/>
      <point x="458" y="713" type="curve"/>
      <point x="458" y="780" type="line"/>
      <point x="444" y="784"/>
      <point x="399" y="790"/>
      <point x="356" y="790" type="curve"/>
      <point x="258" y="790"/>
      <point x="174" y="760"/>
      <point x="174" y="634" type="curve" smooth="yes"/>
      <point x="174" y="125" type="line" smooth="yes"/>
      <point x="174" y="65"/>
      <point x="139" y="49"/>
      <point x="76" y="49" type="curve" smooth="yes"/>
      <point x="51" y="49" type="line"/>
      <point x="51" y="0" type="line"/>
      <point x="396" y="0" type="line"/>
      <point x="396" y="49" type="line"/>
      <point x="358" y="49" type="line" smooth="yes"/>
      <point x="325" y="49"/>
      <point x="262" y="52"/>
    </contour>
  </outline>
</glyph>
<glyph name="f_b" format="2">
  <advance width="1200"/>
  <outline>
    <contour>
      <point x="1053" y="285" type="curve" smooth="yes"/>
      <point x="1053" y="126"/>
      <point x="992" y="50"/>
      <point x="872" y="50" type="curve" smooth="yes"/>
      <point x="781" y="50"/>
      <point x="722" y="95"/>
      <point x="662" y="178" type="curve"/>
      <point x="655" y="137" type="line"/>
      <point x="709" y="45"/>
      <point x="778" y="-13"/>
      <point x="879" y="-13" type="curve" smooth="yes"/>
      <point x="1053" y="-13"/>
      <point x="1147" y="113"/>
      <point x="1147" y="285" type="curve" smooth="yes"/>
      <point x="1147" y="457"/>
      <point x="1063" y="575"/>
      <point x="892" y="575" type="curve" smooth="yes"/>
      <point x="786" y="575"/>
      <point x="715" y="517"/>
      <point x="656" y="427" type="curve"/>
      <point x="660" y="388" type="line"/>
      <point x="725" y="472"/>
      <point x="788" y="512"/>
      <point x="881" y="512" type="curve" smooth="yes"/>
      <point x="1004" y="512"/>
      <point x="1053" y="437"/>
    </contour>
    <contour>
      <point x="587" y="718" type="line"/>
      <point x="587" y="-21" type="line"/>
      <point x="647" y="-21" type="line"/>
      <point x="676" y="122" type="line"/>
      <point x="676" y="123" type="line"/>
      <point x="676" y="780" type="line"/>
      <point x="491" y="780" type="line"/>
    </contour>
    <contour>
      <point x="51" y="565" type="line"/>
      <point x="51" y="506" type="line"/>
      <point x="433" y="506" type="line"/>
      <point x="433" y="565" type="line"/>
    </contour>
    <contour>
      <point x="262" y="621" type="line" smooth="yes"/>
      <point x="262" y="699"/>
      <point x="300" y="724"/>
      <point x="407" y="724" type="curve" smooth="yes"/>
      <point x="502" y="724"/>
      <point x="572" y="705"/>
      <point x="601" y="691" type="curve"/>
      <point x="601" y="739" type="line"/>
      <point x="576" y="767"/>
      <point x="506" y="790"/>
      <point x="407" y="790" type="curve" smooth="yes"/>
      <point x="266" y="790"/>
      <point x="174" y="758"/>
      <point x="174" y="631" type="curve" smooth="yes"/>
      <point x="174" y="125" type="line" smooth="yes"/>
      <point x="174" y="65"/>
      <point x="139" y="49"/>
      <point x="76" y="49" type="curve" smooth="yes"/>
      <point x="51" y="49" type="line"/>
      <point x="51" y="0" type="line"/>
      <point x="395" y="0" type="line"/>
      <point x="395" y="49" type="line"/>
      <point x="358" y="49" type="line" smooth="yes"/>
      <point x="325" y="49"/>
      <point x="262" y="52"/>
      <point x="262" y="59" type="curve" smooth="yes"/>
    </contour>
  </outline>
</glyph>
<glyph name="f_f.alt" format="2">
  <advance width="902"/>
  <outline>
    <contour>
      <point x="51" y="565" type="line"/>
      <point x="51" y="506" type="line"/>
      <point x="508" y="506" type="line"/>
      <point x="508" y="565" type="line"/>
    </contour>
    <contour>
      <point x="445" y="565" type="line"/>
      <point x="445" y="506" type="line"/>
      <point x="856" y="506" type="line"/>
      <point x="856" y="565" type="line"/>
    </contour>
    <contour>
      <point x="586" y="59" type="line" smooth="yes"/>
      <point x="586" y="52"/>
      <point x="524" y="49"/>
      <point x="491" y="49" type="curve" smooth="yes"/>
      <point x="475" y="49" type="line"/>
      <point x="475" y="0" type="line"/>
      <point x="808" y="0" type="line"/>
      <point x="808" y="49" type="line"/>
      <point x="770" y="49" type="line" smooth="yes"/>
      <point x="737" y="49"/>
      <point x="674" y="52"/>
      <point x="674" y="59" type="curve" smooth="yes"/>
      <point x="674" y="623" type="line" smooth="yes"/>
      <point x="674" y="701"/>
      <point x="706" y="730"/>
      <point x="783" y="730" type="curve" smooth="yes"/>
      <point x="845" y="730"/>
      <point x="886" y="718"/>
      <point x="911" y="706" type="curve"/>
      <point x="905" y="715"/>
      <point x="893" y="733"/>
      <point x="856" y="734" type="curve"/>
      <point x="856" y="652" type="line"/>
      <point x="946" y="652" type="line"/>
      <point x="946" y="759" type="line"/>
      <point x="920" y="774"/>
      <point x="861" y="790"/>
      <point x="785" y="790" type="curve" smooth="yes"/>
      <point x="675" y="790"/>
      <point x="586" y="758"/>
      <point x="586" y="630" type="curve"/>
    </contour>
    <contour>
      <point x="51" y="0" type="line"/>
      <point x="375" y="0" type="line"/>
      <point x="375" y="49" type="line"/>
      <point x="357" y="49" type="line" smooth="yes"/>
      <point x="324" y="49"/>
      <point x="262" y="52"/>
      <point x="262" y="59" type="curve" smooth="yes"/>
      <point x="262" y="608" type="line" smooth="yes"/>
      <point x="262" y="686"/>
      <point x="306" y="715"/>
      <point x="432" y="715" type="curve" smooth="yes"/>
      <point x="538" y="715"/>
      <point x="612" y="687"/>
      <point x="640" y="657" type="curve"/>
      <point x="636" y="681"/>
      <point x="622" y="702"/>
      <point x="586" y="699" type="curve"/>
      <point x="586" y="605" type="line"/>
      <point x="664" y="605" type="line"/>
      <point x="664" y="717" type="line"/>
      <point x="636" y="739"/>
      <point x="558" y="775"/>
      <point x="432" y="775" type="curve" smooth="yes"/>
      <point x="294" y="775"/>
      <point x="174" y="743"/>
      <point x="174" y="616" type="curve" smooth="yes"/>
      <point x="174" y="125" type="line" smooth="yes"/>
      <point x="174" y="65"/>
      <point x="139" y="49"/>
      <point x="76" y="49" type="curve" smooth="yes"/>
      <point x="51" y="49" type="line"/>
    </contour>
  </outline>
</glyph>
<glyph name="f_f.short" format="2">
  <advance width="896"/>
  <outline>
    <contour>
      <point x="51" y="565" type="line"/>
      <point x="51" y="506" type="line"/>
      <point x="498" y="506" type="line"/>
      <point x="498" y="565" type="line"/>
    </contour>
    <contour>
      <point x="463" y="565" type="line"/>
      <point x="463" y="506" type="line"/>
      <point x="855" y="506" type="line"/>
      <point x="855" y="565" type="line"/>
    </contour>
    <contour>
      <point x="586" y="59" type="line" smooth="yes"/>
      <point x="586" y="52"/>
      <point x="531" y="49"/>
      <point x="499" y="49" type="curve" smooth="yes"/>
      <point x="475" y="49" type="line"/>
      <point x="475" y="0" type="line"/>
      <point x="808" y="0" type="line"/>
      <point x="808" y="49" type="line"/>
      <point x="770" y="49" type="line" smooth="yes"/>
      <point x="737" y="49"/>
      <point x="674" y="52"/>
      <point x="674" y="59" type="curve" smooth="yes"/>
      <point x="674" y="627" type="line" smooth="yes"/>
      <point x="674" y="702"/>
      <point x="704" y="724"/>
      <point x="774" y="724" type="curve"/>
      <point x="815" y="724"/>
      <point x="852" y="717"/>
      <point x="870" y="713" type="curve"/>
      <point x="870" y="780" type="line"/>
      <point x="856" y="784"/>
      <point x="810" y="790"/>
      <point x="768" y="790" type="curve"/>
      <point x="670" y="790"/>
      <point x="586" y="760"/>
      <point x="586" y="634" type="curve"/>
    </contour>
    <contour>
      <point x="262" y="59" type="curve" smooth="yes"/>
      <point x="262" y="611" type="line" smooth="yes"/>
      <point x="262" y="687"/>
      <point x="291" y="709"/>
      <point x="364" y="709" type="curve" smooth="yes"/>
      <point x="404" y="709"/>
      <point x="443" y="702"/>
      <point x="461" y="698" type="curve"/>
      <point x="461" y="765" type="line"/>
      <point x="446" y="769"/>
      <point x="400" y="775"/>
      <point x="358" y="775" type="curve" smooth="yes"/>
      <point x="258" y="775"/>
      <point x="174" y="745"/>
      <point x="174" y="619" type="curve" smooth="yes"/>
      <point x="174" y="125" type="line" smooth="yes"/>
      <point x="174" y="65"/>
      <point x="139" y="49"/>
      <point x="76" y="49" type="curve" smooth="yes"/>
      <point x="51" y="49" type="line"/>
      <point x="51" y="0" type="line"/>
      <point x="375" y="0" type="line"/>
      <point x="375" y="49" type="line"/>
      <point x="349" y="49" type="line" smooth="yes"/>
      <point x="317" y="49"/>
      <point x="262" y="52"/>
    </contour>
  </outline>
</glyph>
<glyph name="f_f_h" format="2">
  <advance width="1598"/>
  <outline>
    <contour>
      <point x="51" y="565" type="line"/>
      <point x="51" y="506" type="line"/>
      <point x="498" y="506" type="line"/>
      <point x="498" y="565" type="line"/>
    </contour>
    <contour>
      <point x="1380" y="59" type="line" smooth="yes"/>
      <point x="1380" y="52"/>
      <point x="1333" y="49"/>
      <point x="1303" y="49" type="curve" smooth="yes"/>
      <point x="1298" y="49" type="line"/>
      <point x="1298" y="0" type="line"/>
      <point x="1565" y="0" type="line"/>
      <point x="1565" y="49" type="line"/>
      <point x="1561" y="49" type="line" smooth="yes"/>
      <point x="1501" y="49"/>
      <point x="1468" y="65"/>
      <point x="1468" y="125" type="curve" smooth="yes"/>
      <point x="1468" y="435" type="line" smooth="yes"/>
      <point x="1468" y="524"/>
      <point x="1417" y="576"/>
      <point x="1315" y="576" type="curve" smooth="yes"/>
      <point x="1218" y="576"/>
      <point x="1135" y="521"/>
      <point x="1068" y="424" type="curve"/>
      <point x="1069" y="386" type="line"/>
      <point x="1143" y="472"/>
      <point x="1211" y="509"/>
      <point x="1282" y="509" type="curve" smooth="yes"/>
      <point x="1354" y="509"/>
      <point x="1380" y="479"/>
      <point x="1380" y="424" type="curve" smooth="yes"/>
    </contour>
    <contour>
      <point x="463" y="565" type="line"/>
      <point x="463" y="506" type="line"/>
      <point x="845" y="506" type="line"/>
      <point x="845" y="565" type="line"/>
    </contour>
    <contour>
      <point x="902" y="0" type="line"/>
      <point x="1169" y="0" type="line"/>
      <point x="1169" y="49" type="line"/>
      <point x="1164" y="49" type="line" smooth="yes"/>
      <point x="1134" y="49"/>
      <point x="1088" y="52"/>
      <point x="1088" y="59" type="curve" smooth="yes"/>
      <point x="1088" y="780" type="line"/>
      <point x="903" y="780" type="line"/>
      <point x="999" y="717" type="line"/>
      <point x="999" y="59" type="line" smooth="yes"/>
      <point x="999" y="52"/>
      <point x="951" y="49"/>
      <point x="913" y="49" type="curve" smooth="yes"/>
      <point x="902" y="49" type="line"/>
    </contour>
    <contour>
      <point x="174" y="125" type="line" smooth="yes"/>
      <point x="174" y="65"/>
      <point x="139" y="49"/>
      <point x="76" y="49" type="curve" smooth="yes"/>
      <point x="51" y="49" type="line"/>
      <point x="51" y="0" type="line"/>
      <point x="375" y="0" type="line"/>
      <point x="375" y="49" type="line"/>
      <point x="349" y="49" type="line" smooth="yes"/>
      <point x="317" y="49"/>
      <point x="262" y="52"/>
      <point x="262" y="59" type="curve" smooth="yes"/>
      <point x="262" y="611" type="line" smooth="yes"/>
      <point x="262" y="687"/>
      <point x="291" y="709"/>
      <point x="364" y="709" type="curve" smooth="yes"/>
      <point x="404" y="709"/>
      <point x="443" y="702"/>
      <point x="461" y="698" type="curve"/>
      <point x="461" y="765" type="line"/>
      <point x="446" y="769"/>
      <point x="400" y="775"/>
      <point x="358" y="775" type="curve" smooth="yes"/>
      <point x="258" y="775"/>
      <point x="174" y="745"/>
      <point x="174" y="619" type="curve" smooth="yes"/>
    </contour>
    <contour>
      <point x="586" y="59" type="line" smooth="yes"/>
      <point x="586" y="52"/>
      <point x="531" y="49"/>
      <point x="498" y="49" type="curve" smooth="yes"/>
      <point x="475" y="49" type="line"/>
      <point x="475" y="0" type="line"/>
      <point x="787" y="0" type="line"/>
      <point x="787" y="49" type="line"/>
      <point x="762" y="49" type="line" smooth="yes"/>
      <point x="729" y="49"/>
      <point x="674" y="52"/>
      <point x="674" y="59" type="curve" smooth="yes"/>
      <point x="674" y="621" type="line" smooth="yes"/>
      <point x="674" y="699"/>
      <point x="712" y="724"/>
      <point x="819" y="724" type="curve" smooth="yes"/>
      <point x="914" y="724"/>
      <point x="984" y="705"/>
      <point x="1013" y="691" type="curve"/>
      <point x="1013" y="739" type="line"/>
      <point x="988" y="767"/>
      <point x="918" y="790"/>
      <point x="819" y="790" type="curve" smooth="yes"/>
      <point x="678" y="790"/>
      <point x="586" y="758"/>
      <point x="586" y="631" type="curve"/>
    </contour>
  </outline>
</glyph>
<glyph name="f_f_k" format="2">
  <advance width="1593"/>
  <outline>
    <contour>
      <point x="1576" y="0" type="line"/>
      <point x="1576" y="49" type="line"/>
      <point x="1561" y="49" type="line" smooth="yes"/>
      <point x="1514" y="49"/>
      <point x="1488" y="56"/>
      <point x="1459" y="86" type="curve" smooth="yes"/>
      <point x="1207" y="337" type="line"/>
      <point x="1204" y="281" type="line"/>
      <point x="1422" y="480" type="line" smooth="yes"/>
      <point x="1455" y="511"/>
      <point x="1477" y="516"/>
      <point x="1521" y="516" type="curve" smooth="yes"/>
      <point x="1539" y="516" type="line"/>
      <point x="1539" y="565" type="line"/>
      <point x="1250" y="565" type="line"/>
      <point x="1250" y="516" type="line"/>
      <point x="1266" y="516" type="line" smooth="yes"/>
      <point x="1305" y="516"/>
      <point x="1357" y="509"/>
      <point x="1357" y="502" type="curve"/>
      <point x="1142" y="303" type="line"/>
      <point x="1142" y="293" type="line"/>
      <point x="1371" y="59" type="line"/>
      <point x="1371" y="53"/>
      <point x="1329" y="49"/>
      <point x="1296" y="49" type="curve" smooth="yes"/>
      <point x="1288" y="49" type="line"/>
      <point x="1288" y="0" type="line"/>
    </contour>
    <contour>
      <point x="51" y="565" type="line"/>
      <point x="51" y="506" type="line"/>
      <point x="498" y="506" type="line"/>
      <point x="498" y="565" type="line"/>
    </contour>
    <contour>
      <point x="463" y="565" type="line"/>
      <point x="463" y="506" type="line"/>
      <point x="845" y="506" type="line"/>
      <point x="845" y="565" type="line"/>
    </contour>
    <contour>
      <point x="902" y="0" type="line"/>
      <point x="1173" y="0" type="line"/>
      <point x="1173" y="49" type="line"/>
      <point x="1165" y="49" type="line" smooth="yes"/>
      <point x="1137" y="49"/>
      <point x="1088" y="52"/>
      <point x="1088" y="59" type="curve"/>
      <point x="1088" y="780" type="line"/>
      <point x="903" y="780" type="line"/>
      <point x="999" y="718" type="line"/>
      <point x="999" y="59" type="line" smooth="yes"/>
      <point x="999" y="52"/>
      <point x="951" y="49"/>
      <point x="913" y="49" type="curve" smooth="yes"/>
      <point x="902" y="49" type="line"/>
    </contour>
    <contour>
      <point x="262" y="59" type="curve" smooth="yes"/>
      <point x="262" y="611" type="line" smooth="yes"/>
      <point x="262" y="687"/>
      <point x="291" y="709"/>
      <point x="364" y="709" type="curve" smooth="yes"/>
      <point x="404" y="709"/>
      <point x="443" y="702"/>
      <point x="461" y="698" type="curve"/>
      <point x="461" y="765" type="line"/>
      <point x="446" y="769"/>
      <point x="400" y="775"/>
      <point x="358" y="775" type="curve" smooth="yes"/>
      <point x="258" y="775"/>
      <point x="174" y="745"/>
      <point x="174" y="619" type="curve" smooth="yes"/>
      <point x="174" y="125" type="line" smooth="yes"/>
      <point x="174" y="65"/>
      <point x="139" y="49"/>
      <point x="76" y="49" type="curve" smooth="yes"/>
      <point x="51" y="49" type="line"/>
      <point x="51" y="0" type="line"/>
      <point x="375" y="0" type="line"/>
      <point x="375" y="49" type="line"/>
      <point x="349" y="49" type="line" smooth="yes"/>
      <point x="317" y="49"/>
      <point x="262" y="52"/>
    </contour>
    <contour>
      <point x="674" y="59" type="curve" smooth="yes"/>
      <point x="674" y="621" type="line" smooth="yes"/>
      <point x="674" y="699"/>
      <point x="712" y="724"/>
      <point x="819" y="724" type="curve" smooth="yes"/>
      <point x="914" y="724"/>
      <point x="984" y="705"/>
      <point x="1013" y="691" type="curve"/>
      <point x="1013" y="739" type="line"/>
      <point x="988" y="767"/>
      <point x="918" y="790"/>
      <point x="819" y="790" type="curve" smooth="yes"/>
      <point x="678" y="790"/>
      <point x="586" y="758"/>
      <point x="586" y="631" type="curve"/>
      <point x="586" y="59" type="line" smooth="yes"/>
      <point x="586" y="52"/>
      <point x="531" y="49"/>
      <point x="498" y="49" type="curve" smooth="yes"/>
      <point x="475" y="49" type="line"/>
      <point x="475" y="0" type="line"/>
      <point x="787" y="0" type="line"/>
      <point x="787" y="49" type="line"/>
      <point x="762" y="49" type="line" smooth="yes"/>
      <point x="729" y="49"/>
      <point x="674" y="52"/>
    </contour>
  </outline>
</glyph>
<glyph name="f_h" format="2">
  <advance width="1186"/>
  <outline>
    <contour>
      <point x="51" y="565" type="line"/>
      <point x="51" y="506" type="line"/>
      <point x="433" y="506" type="line"/>
      <point x="433" y="565" type="line"/>
    </contour>
    <contour>
      <point x="886" y="0" type="line"/>
      <point x="1153" y="0" type="line"/>
      <point x="1153" y="49" type="line"/>
      <point x="1149" y="49" type="line" smooth="yes"/>
      <point x="1089" y="49"/>
      <point x="1056" y="65"/>
      <point x="1056" y="125" type="curve" smooth="yes"/>
      <point x="1056" y="435" type="line" smooth="yes"/>
      <point x="1056" y="524"/>
      <point x="1006" y="576"/>
      <point x="903" y="576" type="curve" smooth="yes"/>
      <point x="806" y="576"/>
      <point x="723" y="521"/>
      <point x="656" y="424" type="curve"/>
      <point x="657" y="386" type="line"/>
      <point x="732" y="472"/>
      <point x="799" y="509"/>
      <point x="870" y="509" type="curve" smooth="yes"/>
      <point x="942" y="509"/>
      <point x="968" y="479"/>
      <point x="968" y="424" type="curve" smooth="yes"/>
      <point x="968" y="59" type="line" smooth="yes"/>
      <point x="968" y="52"/>
      <point x="921" y="49"/>
      <point x="891" y="49" type="curve" smooth="yes"/>
      <point x="886" y="49" type="line"/>
    </contour>
    <contour>
      <point x="491" y="0" type="line"/>
      <point x="757" y="0" type="line"/>
      <point x="757" y="49" type="line"/>
      <point x="752" y="49" type="line" smooth="yes"/>
      <point x="722" y="49"/>
      <point x="676" y="52"/>
      <point x="676" y="59" type="curve"/>
      <point x="676" y="780" type="line"/>
      <point x="491" y="780" type="line"/>
      <point x="587" y="717" type="line"/>
      <point x="587" y="68" type="line" smooth="yes"/>
      <point x="587" y="53"/>
      <point x="542" y="49"/>
      <point x="501" y="49" type="curve" smooth="yes"/>
      <point x="491" y="49" type="line"/>
    </contour>
    <contour>
      <point x="51" y="0" type="line"/>
      <point x="395" y="0" type="line"/>
      <point x="395" y="49" type="line"/>
      <point x="358" y="49" type="line" smooth="yes"/>
      <point x="325" y="49"/>
      <point x="262" y="52"/>
      <point x="262" y="59" type="curve" smooth="yes"/>
      <point x="262" y="621" type="line" smooth="yes"/>
      <point x="262" y="699"/>
      <point x="300" y="724"/>
      <point x="407" y="724" type="curve" smooth="yes"/>
      <point x="502" y="724"/>
      <point x="572" y="705"/>
      <point x="601" y="691" type="curve"/>
      <point x="601" y="739" type="line"/>
      <point x="576" y="767"/>
      <point x="506" y="790"/>
      <point x="407" y="790" type="curve" smooth="yes"/>
      <point x="266" y="790"/>
      <point x="174" y="758"/>
      <point x="174" y="631" type="curve" smooth="yes"/>
      <point x="174" y="125" type="line" smooth="yes"/>
      <point x="174" y="65"/>
      <point x="139" y="49"/>
      <point x="76" y="49" type="curve" smooth="yes"/>
      <point x="51" y="49" type="line"/>
    </contour>
  </outline>
</glyph>
<glyph name="f_i" format="2">
  <advance width="811"/>
  <outline>
    <contour>
      <point x="51" y="565" type="line"/>
      <point x="51" y="506" type="line"/>
      <point x="501" y="506" type="line"/>
      <point x="501" y="565" type="line"/>
    </contour>
    <contour>
      <point x="620" y="677" type="curve" smooth="yes"/>
      <point x="661" y="677"/>
      <point x="691" y="696"/>
      <point x="691" y="742" type="curve" smooth="yes"/>
      <point x="691" y="786"/>
      <point x="661" y="807"/>
      <point x="620" y="807" type="curve" smooth="yes"/>
      <point x="577" y="807"/>
      <point x="548" y="786"/>
      <point x="548" y="742" type="curve" smooth="yes"/>
      <point x="548" y="696"/>
      <point x="577" y="677"/>
    </contour>
    <contour>
      <point x="478" y="0" type="line"/>
      <point x="772" y="0" type="line"/>
      <point x="772" y="49" type="line"/>
      <point x="768" y="49" type="line" smooth="yes"/>
      <point x="709" y="49"/>
      <point x="676" y="65"/>
      <point x="676" y="125" type="curve" smooth="yes"/>
      <point x="676" y="565" type="line"/>
      <point x="458" y="565" type="line"/>
      <point x="435" y="506" type="line"/>
      <point x="445" y="506" type="line" smooth="yes"/>
      <point x="513" y="506"/>
      <point x="587" y="494"/>
      <point x="587" y="463" type="curve" smooth="yes"/>
      <point x="587" y="59" type="line" smooth="yes"/>
      <point x="587" y="52"/>
      <point x="533" y="49"/>
      <point x="500" y="49" type="curve" smooth="yes"/>
      <point x="478" y="49" type="line"/>
    </contour>
    <contour>
      <point x="375" y="0" type="line"/>
      <point x="375" y="49" type="line"/>
      <point x="350" y="49" type="line" smooth="yes"/>
      <point x="318" y="49"/>
      <point x="262" y="52"/>
      <point x="262" y="59" type="curve" smooth="yes"/>
      <point x="262" y="627" type="line" smooth="yes"/>
      <point x="262" y="702"/>
      <point x="288" y="724"/>
      <point x="351" y="724" type="curve"/>
      <point x="387" y="724"/>
      <point x="419" y="717"/>
      <point x="436" y="713" type="curve"/>
      <point x="436" y="780" type="line"/>
      <point x="422" y="784"/>
      <point x="383" y="790"/>
      <point x="344" y="790" type="curve"/>
      <point x="254" y="790"/>
      <point x="174" y="760"/>
      <point x="174" y="634" type="curve" smooth="yes"/>
      <point x="174" y="125" type="line" smooth="yes"/>
      <point x="174" y="65"/>
      <point x="139" y="49"/>
      <point x="76" y="49" type="curve" smooth="yes"/>
      <point x="51" y="49" type="line"/>
      <point x="51" y="0" type="line"/>
    </contour>
  </outline>
</glyph>
<glyph name="f_k" format="2">
  <advance width="1182"/>
  <outline>
    <contour>
      <point x="1164" y="0" type="line"/>
      <point x="1164" y="49" type="line"/>
      <point x="1149" y="49" type="line" smooth="yes"/>
      <point x="1102" y="49"/>
      <point x="1077" y="56"/>
      <point x="1047" y="86" type="curve" smooth="yes"/>
      <point x="795" y="337" type="line"/>
      <point x="792" y="281" type="line"/>
      <point x="1010" y="480" type="line" smooth="yes"/>
      <point x="1043" y="511"/>
      <point x="1065" y="516"/>
      <point x="1109" y="516" type="curve" smooth="yes"/>
      <point x="1127" y="516" type="line"/>
      <point x="1127" y="565" type="line"/>
      <point x="838" y="565" type="line"/>
      <point x="838" y="516" type="line"/>
      <point x="855" y="516" type="line" smooth="yes"/>
      <point x="893" y="516"/>
      <point x="945" y="509"/>
      <point x="945" y="502" type="curve"/>
      <point x="730" y="303" type="line"/>
      <point x="730" y="293" type="line"/>
      <point x="959" y="59" type="line"/>
      <point x="959" y="53"/>
      <point x="917" y="49"/>
      <point x="884" y="49" type="curve" smooth="yes"/>
      <point x="876" y="49" type="line"/>
      <point x="876" y="0" type="line"/>
    </contour>
    <contour>
      <point x="51" y="565" type="line"/>
      <point x="51" y="506" type="line"/>
      <point x="433" y="506" type="line"/>
      <point x="433" y="565" type="line"/>
    </contour>
    <contour>
      <point x="761" y="0" type="line"/>
      <point x="761" y="49" type="line"/>
      <point x="753" y="49" type="line" smooth="yes"/>
      <point x="725" y="49"/>
      <point x="676" y="52"/>
      <point x="676" y="59" type="curve"/>
      <point x="676" y="780" type="line"/>
      <point x="491" y="780" type="line"/>
      <point x="587" y="718" type="line"/>
      <point x="587" y="59" type="line" smooth="yes"/>
      <point x="587" y="52"/>
      <point x="539" y="49"/>
      <point x="501" y="49" type="curve" smooth="yes"/>
      <point x="491" y="49" type="line"/>
      <point x="491" y="0" type="line"/>
    </contour>
    <contour>
      <point x="262" y="59" type="curve" smooth="yes"/>
      <point x="262" y="621" type="line" smooth="yes"/>
      <point x="262" y="699"/>
      <point x="300" y="724"/>
      <point x="407" y="724" type="curve" smooth="yes"/>
      <point x="502" y="724"/>
      <point x="572" y="705"/>
      <point x="601" y="691" type="curve"/>
      <point x="601" y="739" type="line"/>
      <point x="576" y="767"/>
      <point x="506" y="790"/>
      <point x="407" y="790" type="curve" smooth="yes"/>
      <point x="266" y="790"/>
      <point x="174" y="758"/>
      <point x="174" y="631" type="curve" smooth="yes"/>
      <point x="174" y="125" type="line" smooth="yes"/>
      <point x="174" y="65"/>
      <point x="139" y="49"/>
      <point x="76" y="49" type="curve" smooth="yes"/>
      <point x="51" y="49" type="line"/>
      <point x="51" y="0" type="line"/>
      <point x="395" y="0" type="line"/>
      <point x="395" y="49" type="line"/>
      <point x="358" y="49" type="line" smooth="yes"/>
      <point x="325" y="49"/>
      <point x="262" y="52"/>
    </contour>
  </outline>
</glyph>
<glyph name="five.linprop" format="2">
  <advance width="629"/>
  <outline>
    <contour>
      <point x="300" y="-11" type="curve" smooth="yes"/>
      <point x="149" y="-11"/>
      <point x="81" y="49"/>
      <point x="40" y="131" type="curve"/>
      <point x="93" y="169" type="line"/>
      <point x="125" y="109"/>
      <point x="169" y="47"/>
      <point x="305" y="47" type="curve" smooth="yes"/>
      <point x="415" y="47"/>
      <point x="479" y="98"/>
      <point x="479" y="240" type="curve" smooth="yes"/>
      <point x="479" y="369"/>
      <point x="416" y="409"/>
      <point x="323" y="409" type="curve" smooth="yes"/>
      <point x="245" y="409"/>
      <point x="203" y="384"/>
      <point x="166" y="324" type="curve"/>
      <point x="105" y="324" type="line"/>
      <point x="105" y="710" type="line"/>
      <point x="521" y="710" type="line"/>
      <point x="496" y="637" type="line"/>
      <point x="144" y="637" type="line"/>
      <point x="170" y="690" type="line"/>
      <point x="170" y="357" type="line"/>
      <point x="166" y="346"/>
      <point x="147" y="339"/>
      <point x="149" y="360" type="curve"/>
      <point x="185" y="432"/>
      <point x="249" y="467"/>
      <point x="338" y="467" type="curve" smooth="yes"/>
      <point x="486" y="467"/>
      <point x="572" y="383"/>
      <point x="572" y="240" type="curve" smooth="yes"/>
      <point x="572" y="73"/>
      <point x="466" y="-11"/>
    </contour>
  </outline>
</glyph>
<glyph name="five.lintab" format="2">
  <advance width="594"/>
  <outline>
    <contour>
      <point x="279" y="-11" type="curve" smooth="yes"/>
      <point x="132" y="-11"/>
      <point x="72" y="49"/>
      <point x="32" y="131" type="curve"/>
      <point x="85" y="169" type="line"/>
      <point x="116" y="109"/>
      <point x="152" y="47"/>
      <point x="282" y="47" type="curve" smooth="yes"/>
      <point x="388" y="47"/>
      <point x="451" y="96"/>
      <point x="451" y="240" type="curve" smooth="yes"/>
      <point x="451" y="371"/>
      <point x="392" y="411"/>
      <point x="304" y="411" type="curve" smooth="yes"/>
      <point x="231" y="411"/>
      <point x="189" y="387"/>
      <point x="154" y="326" type="curve"/>
      <point x="93" y="326" type="line"/>
      <point x="93" y="710" type="line"/>
      <point x="500" y="710" type="line"/>
      <point x="475" y="637" type="line"/>
      <point x="132" y="637" type="line"/>
      <point x="158" y="690" type="line"/>
      <point x="158" y="361" type="line"/>
      <point x="156" y="350"/>
      <point x="136" y="342"/>
      <point x="137" y="363" type="curve"/>
      <point x="172" y="435"/>
      <point x="234" y="469"/>
      <point x="320" y="469" type="curve" smooth="yes"/>
      <point x="462" y="469"/>
      <point x="544" y="385"/>
      <point x="544" y="240" type="curve" smooth="yes"/>
      <point x="544" y="71"/>
      <point x="438" y="-11"/>
    </contour>
  </outline>
</glyph>
<glyph name="five.midprop" format="2">
  <advance width="630"/>
  <outline>
    <contour>
      <point x="302" y="-58" type="curve" smooth="yes"/>
      <point x="150" y="-58"/>
      <point x="82" y="1"/>
      <point x="41" y="84" type="curve"/>
      <point x="94" y="121" type="line"/>
      <point x="127" y="61"/>
      <point x="170" y="-1"/>
      <point x="306" y="-1" type="curve" smooth="yes"/>
      <point x="417" y="-1"/>
      <point x="480" y="51"/>
      <point x="480" y="195" type="curve" smooth="yes"/>
      <point x="480" y="327"/>
      <point x="417" y="367"/>
      <point x="325" y="367" type="curve" smooth="yes"/>
      <point x="246" y="367"/>
      <point x="204" y="342"/>
      <point x="167" y="282" type="curve"/>
      <point x="107" y="282" type="line"/>
      <point x="107" y="667" type="line"/>
      <point x="522" y="667" type="line"/>
      <point x="497" y="594" type="line"/>
      <point x="146" y="594" type="line"/>
      <point x="171" y="647" type="line"/>
      <point x="171" y="315" type="line"/>
      <point x="168" y="304"/>
      <point x="148" y="297"/>
      <point x="150" y="318" type="curve"/>
      <point x="186" y="390"/>
      <point x="250" y="425"/>
      <point x="339" y="425" type="curve" smooth="yes"/>
      <point x="487" y="425"/>
      <point x="574" y="341"/>
      <point x="574" y="195" type="curve" smooth="yes"/>
      <point x="574" y="26"/>
      <point x="467" y="-58"/>
    </contour>
  </outline>
</glyph>
<glyph name="florin.proportional" format="2">
  <advance width="547"/>
  <outline>
    <contour>
      <point x="111" y="565" type="line"/>
      <point x="97" y="506" type="line"/>
      <point x="483" y="506" type="line"/>
      <point x="496" y="565" type="line"/>
    </contour>
    <contour>
      <point x="244" y="647" type="curve" smooth="yes"/>
      <point x="109" y="-76" type="line" smooth="yes"/>
      <point x="93" y="-161"/>
      <point x="67" y="-184"/>
      <point x="3" y="-184" type="curve" smooth="yes"/>
      <point x="-24" y="-184"/>
      <point x="-59" y="-178"/>
      <point x="-84" y="-173" type="curve"/>
      <point x="-94" y="-239" type="line"/>
      <point x="-68" y="-246"/>
      <point x="-37" y="-250"/>
      <point x="-1" y="-250" type="curve" smooth="yes"/>
      <point x="109" y="-250"/>
      <point x="171" y="-205"/>
      <point x="193" y="-81" type="curve" smooth="yes"/>
      <point x="325" y="627" type="line" smooth="yes"/>
      <point x="339" y="699"/>
      <point x="363" y="724"/>
      <point x="439" y="724" type="curve" smooth="yes"/>
      <point x="492" y="724"/>
      <point x="541" y="714"/>
      <point x="564" y="709" type="curve"/>
      <point x="574" y="775" type="line"/>
      <point x="546" y="782"/>
      <point x="502" y="790"/>
      <point x="443" y="790" type="curve" smooth="yes"/>
      <point x="331" y="790"/>
      <point x="263" y="750"/>
    </contour>
  </outline>
</glyph>
<glyph name="four.linprop" format="2">
  <advance width="664"/>
  <outline>
    <contour>
      <point x="275" y="0" type="line"/>
      <point x="627" y="0" type="line"/>
      <point x="627" y="59" type="line"/>
      <point x="587" y="59" type="line" smooth="yes"/>
      <point x="535" y="59"/>
      <point x="497" y="66"/>
      <point x="497" y="95" type="curve" smooth="yes"/>
      <point x="497" y="710" type="line"/>
      <point x="406" y="710" type="line"/>
      <point x="408" y="698" type="line"/>
      <point x="408" y="95" type="line" smooth="yes"/>
      <point x="408" y="66"/>
      <point x="369" y="59"/>
      <point x="317" y="59" type="curve" smooth="yes"/>
      <point x="275" y="59" type="line"/>
    </contour>
    <contour>
      <point x="55" y="214" type="line"/>
      <point x="630" y="214" type="line"/>
      <point x="630" y="278" type="line"/>
      <point x="86" y="278" type="line"/>
      <point x="95" y="244" type="line"/>
      <point x="417" y="686" type="line"/>
      <point x="433" y="710" type="line"/>
      <point x="363" y="710" type="line"/>
      <point x="55" y="290" type="line"/>
    </contour>
  </outline>
</glyph>
<glyph name="four.midprop" format="2">
  <advance width="659"/>
  <outline>
    <contour>
      <point x="48" y="146" type="line"/>
      <point x="625" y="146" type="line"/>
      <point x="625" y="211" type="line"/>
      <point x="79" y="211" type="line"/>
      <point x="89" y="177" type="line"/>
      <point x="418" y="643" type="line"/>
      <point x="435" y="667" type="line"/>
      <point x="365" y="667" type="line"/>
      <point x="48" y="223" type="line"/>
    </contour>
    <contour>
      <point x="499" y="-50" type="line"/>
      <point x="499" y="667" type="line"/>
      <point x="406" y="667" type="line"/>
      <point x="410" y="655" type="line"/>
      <point x="410" y="-50" type="line"/>
    </contour>
  </outline>
</glyph>
<glyph name="guarani.proportional" format="2">
  <advance width="763"/>
  <outline>
    <contour>
      <point x="355" y="790" type="line"/>
      <point x="355" y="672" type="line"/>
      <point x="369" y="662" type="line"/>
      <point x="369" y="48" type="line"/>
      <point x="355" y="37" type="line"/>
      <point x="355" y="-120" type="line"/>
      <point x="434" y="-120" type="line"/>
      <point x="434" y="38" type="line"/>
      <point x="420" y="48" type="line"/>
      <point x="420" y="658" type="line"/>
      <point x="434" y="676" type="line"/>
      <point x="434" y="790" type="line"/>
    </contour>
    <contour>
      <point x="411" y="10" type="curve" smooth="yes"/>
      <point x="526" y="10"/>
      <point x="621" y="50"/>
      <point x="663" y="82" type="curve"/>
      <point x="663" y="264" type="line" smooth="yes"/>
      <point x="663" y="293"/>
      <point x="686" y="300"/>
      <point x="716" y="300" type="curve" smooth="yes"/>
      <point x="721" y="300" type="line"/>
      <point x="721" y="358" type="line"/>
      <point x="516" y="358" type="line"/>
      <point x="516" y="300" type="line"/>
      <point x="526" y="300" type="line" smooth="yes"/>
      <point x="556" y="300"/>
      <point x="580" y="293"/>
      <point x="580" y="264" type="curve" smooth="yes"/>
      <point x="580" y="95" type="line"/>
      <point x="557" y="83"/>
      <point x="509" y="65"/>
      <point x="415" y="65" type="curve" smooth="yes"/>
      <point x="228" y="65"/>
      <point x="157" y="155"/>
      <point x="157" y="355" type="curve" smooth="yes"/>
      <point x="157" y="550"/>
      <point x="217" y="645"/>
      <point x="423" y="645" type="curve" smooth="yes"/>
      <point x="493" y="645"/>
      <point x="583" y="637"/>
      <point x="637" y="590" type="curve"/>
      <point x="646" y="610"/>
      <point x="606" y="639"/>
      <point x="577" y="656" type="curve"/>
      <point x="577" y="516" type="line"/>
      <point x="667" y="516" type="line"/>
      <point x="667" y="650" type="line"/>
      <point x="611" y="681"/>
      <point x="529" y="700"/>
      <point x="423" y="700" type="curve" smooth="yes"/>
      <point x="182" y="700"/>
      <point x="64" y="577"/>
      <point x="64" y="355" type="curve" smooth="yes"/>
      <point x="64" y="129"/>
      <point x="182" y="10"/>
    </contour>
  </outline>
</glyph>
<glyph name="hook.uc" format="2">
  <advance width="530"/>
  <anchor x="264" y="679" name="_top"/>
  <outline>
    <contour>
      <point x="88" y="929" type="line"/>
      <point x="93" y="1009"/>
      <point x="169" y="1048"/>
      <point x="266" y="1048" type="curve" smooth="yes"/>
      <point x="369" y="1048"/>
      <point x="436" y="1014"/>
      <point x="436" y="938" type="curve" smooth="yes"/>
      <point x="436" y="854"/>
      <point x="355" y="831"/>
      <point x="249" y="830" type="curve"/>
      <point x="304" y="871" type="line"/>
      <point x="304" y="778" type="line"/>
      <point x="217" y="778" type="line"/>
      <point x="217" y="874" type="line"/>
      <point x="300" y="875"/>
      <point x="342" y="882"/>
      <point x="342" y="937" type="curve" smooth="yes"/>
      <point x="342" y="977"/>
      <point x="320" y="990"/>
      <point x="266" y="990" type="curve" smooth="yes"/>
      <point x="211" y="990"/>
      <point x="186" y="977"/>
      <point x="181" y="929" type="curve"/>
    </contour>
  </outline>
</glyph>
<glyph name="kip.proportional" format="2">
  <advance width="735"/>
  <outline>
    <contour>
      <point x="64" y="403" type="line"/>
      <point x="64" y="345" type="line"/>
      <point x="649" y="345" type="line"/>
      <point x="649" y="403" type="line"/>
    </contour>
    <contour>
      <point x="64" y="0" type="line"/>
      <point x="309" y="0" type="line"/>
      <point x="309" y="59" type="line"/>
      <point x="296" y="59" type="line" smooth="yes"/>
      <point x="264" y="59"/>
      <point x="227" y="62"/>
      <point x="227" y="69" type="curve" smooth="yes"/>
      <point x="227" y="641" type="line" smooth="yes"/>
      <point x="227" y="648"/>
      <point x="264" y="651"/>
      <point x="296" y="651" type="curve" smooth="yes"/>
      <point x="309" y="651" type="line"/>
      <point x="309" y="710" type="line"/>
      <point x="64" y="710" type="line"/>
      <point x="64" y="651" type="line"/>
      <point x="72" y="651" type="line" smooth="yes"/>
      <point x="114" y="651"/>
      <point x="151" y="644"/>
      <point x="151" y="615" type="curve" smooth="yes"/>
      <point x="151" y="95" type="line" smooth="yes"/>
      <point x="151" y="66"/>
      <point x="114" y="59"/>
      <point x="72" y="59" type="curve" smooth="yes"/>
      <point x="64" y="59" type="line"/>
    </contour>
    <contour>
      <point x="452" y="0" type="line"/>
      <point x="700" y="0" type="line"/>
      <point x="700" y="59" type="line"/>
      <point x="681" y="59" type="line" smooth="yes"/>
      <point x="652" y="59"/>
      <point x="626" y="65"/>
      <point x="604" y="92" type="curve" smooth="yes"/>
      <point x="348" y="404" type="line"/>
      <point x="350" y="363" type="line"/>
      <point x="584" y="622" type="line" smooth="yes"/>
      <point x="604" y="644"/>
      <point x="634" y="651"/>
      <point x="655" y="651" type="curve" smooth="yes"/>
      <point x="680" y="651" type="line"/>
      <point x="680" y="710" type="line"/>
      <point x="454" y="710" type="line"/>
      <point x="454" y="651" type="line"/>
      <point x="466" y="651" type="line" smooth="yes"/>
      <point x="494" y="651"/>
      <point x="529" y="648"/>
      <point x="529" y="641" type="curve"/>
      <point x="289" y="370" type="line"/>
      <point x="296" y="354" type="line"/>
      <point x="528" y="69" type="line"/>
      <point x="528" y="62"/>
      <point x="495" y="59"/>
      <point x="465" y="59" type="curve" smooth="yes"/>
      <point x="452" y="59" type="line"/>
    </contour>
  </outline>
</glyph>
<glyph name="liraTurkish" format="2">
  <advance width="594"/>
  <outline>
    <contour>
      <point x="32" y="424" type="line"/>
      <point x="32" y="365" type="line"/>
      <point x="473" y="561" type="line"/>
      <point x="473" y="621" type="line"/>
    </contour>
    <contour>
      <point x="32" y="235" type="line"/>
      <point x="32" y="176" type="line"/>
      <point x="473" y="372" type="line"/>
      <point x="473" y="432" type="line"/>
    </contour>
    <contour>
      <point x="325" y="58" type="curve" smooth="yes"/>
      <point x="227" y="58" type="line"/>
      <point x="227" y="615" type="line" smooth="yes"/>
      <point x="227" y="644"/>
      <point x="266" y="651"/>
      <point x="309" y="651" type="curve" smooth="yes"/>
      <point x="317" y="651" type="line"/>
      <point x="317" y="710" type="line"/>
      <point x="38" y="710" type="line"/>
      <point x="38" y="651" type="line"/>
      <point x="53" y="651" type="line" smooth="yes"/>
      <point x="105" y="651"/>
      <point x="143" y="644"/>
      <point x="143" y="615" type="curve" smooth="yes"/>
      <point x="143" y="95" type="line" smooth="yes"/>
      <point x="143" y="66"/>
      <point x="105" y="59"/>
      <point x="53" y="59" type="curve" smooth="yes"/>
      <point x="38" y="59" type="line"/>
      <point x="38" y="0" type="line"/>
      <point x="307" y="0" type="line" smooth="yes"/>
      <point x="516" y="0"/>
      <point x="561" y="90"/>
      <point x="576" y="256" type="curve"/>
      <point x="503" y="268" type="line"/>
      <point x="495" y="137"/>
      <point x="471" y="58"/>
    </contour>
  </outline>
</glyph>
<glyph name="liraTurkish.proportional" format="2">
  <advance width="705"/>
  <outline>
    <contour>
      <point x="58" y="405" type="line"/>
      <point x="58" y="345" type="line"/>
      <point x="538" y="560" type="line"/>
      <point x="538" y="620" type="line"/>
    </contour>
    <contour>
      <point x="58" y="216" type="line"/>
      <point x="58" y="156" type="line"/>
      <point x="538" y="371" type="line"/>
      <point x="538" y="431" type="line"/>
    </contour>
    <contour>
      <point x="260" y="615" type="line" smooth="yes"/>
      <point x="260" y="644"/>
      <point x="299" y="651"/>
      <point x="343" y="651" type="curve" smooth="yes"/>
      <point x="359" y="651" type="line"/>
      <point x="359" y="710" type="line"/>
      <point x="76" y="710" type="line"/>
      <point x="76" y="651" type="line"/>
      <point x="88" y="651" type="line" smooth="yes"/>
      <point x="140" y="651"/>
      <point x="178" y="644"/>
      <point x="178" y="615" type="curve" smooth="yes"/>
      <point x="178" y="95" type="line" smooth="yes"/>
      <point x="178" y="66"/>
      <point x="140" y="59"/>
      <point x="88" y="59" type="curve" smooth="yes"/>
      <point x="76" y="59" type="line"/>
      <point x="76" y="0" type="line"/>
      <point x="371" y="0" type="line" smooth="yes"/>
      <point x="576" y="0"/>
      <point x="634" y="96"/>
      <point x="653" y="260" type="curve"/>
      <point x="576" y="272" type="line"/>
      <point x="564" y="144"/>
      <point x="528" y="58"/>
      <point x="390" y="58" type="curve" smooth="yes"/>
      <point x="260" y="58" type="line"/>
    </contour>
  </outline>
</glyph>
<glyph name="lslash" format="2">
  <advance width="433"/>
  <outline>
    <contour>
      <point x="49" y="243" type="line"/>
      <point x="402" y="512" type="line"/>
      <point x="402" y="580" type="line"/>
      <point x="49" y="311" type="line"/>
    </contour>
    <component base="l" xOffset="23"/>
  </outline>
</glyph>
<glyph name="manat.proportional" format="2">
  <advance width="776"/>
  <outline>
    <contour>
      <point x="353" y="760" type="line"/>
      <point x="353" y="124" type="line"/>
      <point x="423" y="124" type="line"/>
      <point x="423" y="760" type="line"/>
    </contour>
    <contour>
      <point x="388" y="555" type="curve" smooth="yes"/>
      <point x="573" y="555"/>
      <point x="608" y="454"/>
      <point x="621" y="0" type="curve"/>
      <point x="716" y="0" type="line"/>
      <point x="705" y="453"/>
      <point x="616" y="609"/>
      <point x="388" y="609" type="curve" smooth="yes"/>
      <point x="160" y="609"/>
      <point x="71" y="453"/>
      <point x="59" y="0" type="curve"/>
      <point x="155" y="0" type="line"/>
      <point x="168" y="454"/>
      <point x="203" y="555"/>
    </contour>
  </outline>
</glyph>
<glyph name="nine.linprop" format="2">
  <advance width="651"/>
  <outline>
    <contour>
      <point x="135" y="43" type="line"/>
      <point x="365" y="66"/>
      <point x="486" y="165"/>
      <point x="486" y="430" type="curve" smooth="yes"/>
      <point x="486" y="620"/>
      <point x="427" y="677"/>
      <point x="310" y="677" type="curve" smooth="yes"/>
      <point x="195" y="677"/>
      <point x="146" y="600"/>
      <point x="146" y="491" type="curve" smooth="yes"/>
      <point x="146" y="392"/>
      <point x="182" y="325"/>
      <point x="290" y="325" type="curve" smooth="yes"/>
      <point x="403" y="325"/>
      <point x="456" y="389"/>
      <point x="501" y="481" type="curve"/>
      <point x="511" y="431" type="line"/>
      <point x="481" y="346"/>
      <point x="409" y="268"/>
      <point x="280" y="268" type="curve" smooth="yes"/>
      <point x="139" y="268"/>
      <point x="50" y="351"/>
      <point x="50" y="491" type="curve" smooth="yes"/>
      <point x="50" y="631"/>
      <point x="148" y="735"/>
      <point x="311" y="735" type="curve" smooth="yes"/>
      <point x="476" y="735"/>
      <point x="580" y="649"/>
      <point x="580" y="430" type="curve" smooth="yes"/>
      <point x="580" y="149"/>
      <point x="426" y="13"/>
      <point x="146" y="-15" type="curve"/>
    </contour>
  </outline>
</glyph>
<glyph name="nine.lintab" format="2">
  <advance width="593"/>
  <outline>
    <contour>
      <point x="120" y="43" type="line"/>
      <point x="344" y="66"/>
      <point x="461" y="154"/>
      <point x="461" y="430" type="curve" smooth="yes"/>
      <point x="461" y="623"/>
      <point x="411" y="677"/>
      <point x="299" y="677" type="curve" smooth="yes"/>
      <point x="192" y="677"/>
      <point x="146" y="604"/>
      <point x="146" y="494" type="curve" smooth="yes"/>
      <point x="146" y="397"/>
      <point x="177" y="325"/>
      <point x="279" y="325" type="curve" smooth="yes"/>
      <point x="384" y="325"/>
      <point x="434" y="389"/>
      <point x="477" y="481" type="curve"/>
      <point x="487" y="431" type="line"/>
      <point x="457" y="346"/>
      <point x="391" y="268"/>
      <point x="270" y="268" type="curve" smooth="yes"/>
      <point x="133" y="268"/>
      <point x="50" y="355"/>
      <point x="50" y="494" type="curve" smooth="yes"/>
      <point x="50" y="635"/>
      <point x="144" y="735"/>
      <point x="300" y="735" type="curve" smooth="yes"/>
      <point x="460" y="735"/>
      <point x="554" y="652"/>
      <point x="554" y="430" type="curve" smooth="yes"/>
      <point x="554" y="140"/>
      <point x="405" y="13"/>
      <point x="131" y="-15" type="curve"/>
    </contour>
  </outline>
</glyph>
<glyph name="nine.oldprop" format="2">
  <advance width="649"/>
  <outline>
    <contour>
      <point x="135" y="-43" type="line"/>
      <point x="363" y="-20"/>
      <point x="484" y="79"/>
      <point x="484" y="344" type="curve" smooth="yes"/>
      <point x="484" y="534"/>
      <point x="426" y="591"/>
      <point x="309" y="591" type="curve" smooth="yes"/>
      <point x="194" y="591"/>
      <point x="146" y="514"/>
      <point x="146" y="405" type="curve" smooth="yes"/>
      <point x="146" y="306"/>
      <point x="182" y="239"/>
      <point x="289" y="239" type="curve" smooth="yes"/>
      <point x="402" y="239"/>
      <point x="455" y="303"/>
      <point x="499" y="395" type="curve"/>
      <point x="509" y="345" type="line"/>
      <point x="479" y="260"/>
      <point x="408" y="182"/>
      <point x="279" y="182" type="curve" smooth="yes"/>
      <point x="139" y="182"/>
      <point x="50" y="265"/>
      <point x="50" y="405" type="curve" smooth="yes"/>
      <point x="50" y="545"/>
      <point x="147" y="649"/>
      <point x="309" y="649" type="curve" smooth="yes"/>
      <point x="474" y="649"/>
      <point x="578" y="563"/>
      <point x="578" y="344" type="curve" smooth="yes"/>
      <point x="578" y="63"/>
      <point x="424" y="-73"/>
      <point x="146" y="-101" type="curve"/>
    </contour>
  </outline>
</glyph>
<glyph name="plus.sub" format="2">
  <advance width="446"/>
  <outline>
    <contour>
      <point x="193" y="249" type="line"/>
      <point x="193" y="-84" type="line"/>
      <point x="253" y="-84" type="line"/>
      <point x="253" y="249" type="line"/>
    </contour>
    <contour>
      <point x="395" y="108" type="line"/>
      <point x="51" y="108" type="line"/>
      <point x="51" y="57" type="line"/>
      <point x="395" y="57" type="line"/>
    </contour>
  </outline>
</glyph>
<glyph name="ruble.proportional" format="2">
  <advance width="661"/>
  <outline>
    <contour>
      <point x="48" y="403" type="line"/>
      <point x="406" y="403" type="line" smooth="yes"/>
      <point x="494" y="403"/>
      <point x="538" y="447"/>
      <point x="538" y="531" type="curve" smooth="yes"/>
      <point x="538" y="613"/>
      <point x="494" y="651"/>
      <point x="411" y="651" type="curve" smooth="yes"/>
      <point x="254" y="651" type="line"/>
      <point x="254" y="69" type="line" smooth="yes"/>
      <point x="254" y="62"/>
      <point x="300" y="59"/>
      <point x="336" y="59" type="curve" smooth="yes"/>
      <point x="364" y="59" type="line"/>
      <point x="364" y="0" type="line"/>
      <point x="67" y="0" type="line"/>
      <point x="67" y="59" type="line"/>
      <point x="78" y="59" type="line" smooth="yes"/>
      <point x="130" y="59"/>
      <point x="168" y="66"/>
      <point x="168" y="95" type="curve" smooth="yes"/>
      <point x="168" y="615" type="line" smooth="yes"/>
      <point x="168" y="644"/>
      <point x="130" y="651"/>
      <point x="78" y="651" type="curve" smooth="yes"/>
      <point x="67" y="651" type="line"/>
      <point x="67" y="710" type="line"/>
      <point x="404" y="710" type="line" smooth="yes"/>
      <point x="541" y="710"/>
      <point x="628" y="645"/>
      <point x="628" y="532" type="curve" smooth="yes"/>
      <point x="628" y="420"/>
      <point x="535" y="349"/>
      <point x="398" y="349" type="curve" smooth="yes"/>
      <point x="48" y="349" type="line"/>
    </contour>
    <contour>
      <point x="493" y="180" type="line"/>
      <point x="48" y="180" type="line"/>
      <point x="48" y="231" type="line"/>
      <point x="493" y="231" type="line"/>
    </contour>
  </outline>
</glyph>
<glyph name="rupeeIndian" format="2">
  <advance width="594"/>
  <outline>
    <contour>
      <point x="58" y="509" type="line"/>
      <point x="58" y="459" type="line"/>
      <point x="572" y="459" type="line"/>
      <point x="572" y="509" type="line"/>
    </contour>
    <contour>
      <point x="116" y="276" type="line"/>
      <point x="138" y="276" type="line" smooth="yes"/>
      <point x="321" y="276"/>
      <point x="426" y="351"/>
      <point x="426" y="491" type="curve" smooth="yes"/>
      <point x="426" y="588"/>
      <point x="361" y="648"/>
      <point x="226" y="668" type="curve"/>
      <point x="187" y="660" type="line"/>
      <point x="572" y="660" type="line"/>
      <point x="572" y="710" type="line"/>
      <point x="58" y="710" type="line"/>
      <point x="58" y="648" type="line"/>
      <point x="175" y="648" type="line" smooth="yes"/>
      <point x="295" y="648"/>
      <point x="334" y="595"/>
      <point x="334" y="491" type="curve" smooth="yes"/>
      <point x="334" y="380"/>
      <point x="300" y="317"/>
      <point x="161" y="317" type="curve" smooth="yes"/>
      <point x="69" y="317" type="line"/>
      <point x="69" y="270" type="line"/>
      <point x="366" y="0" type="line"/>
      <point x="488" y="0" type="line"/>
      <point x="488" y="59" type="line"/>
      <point x="465" y="59" type="line" smooth="yes"/>
      <point x="425" y="59"/>
      <point x="408" y="67"/>
      <point x="386" y="87" type="curve" smooth="yes"/>
      <point x="155" y="294" type="line"/>
    </contour>
  </outline>
</glyph>
<glyph name="seven.lintab" format="2">
  <advance width="593"/>
  <outline>
    <contour>
      <point x="270" y="637" type="line" smooth="yes"/>
      <point x="179" y="637"/>
      <point x="141" y="630"/>
      <point x="138" y="594" type="curve" smooth="yes"/>
      <point x="129" y="492" type="line"/>
      <point x="62" y="492" type="line"/>
      <point x="62" y="710" type="line"/>
      <point x="563" y="710" type="line"/>
      <point x="563" y="635" type="line"/>
      <point x="424" y="467"/>
      <point x="328" y="328"/>
      <point x="306" y="0" type="curve"/>
      <point x="208" y="0" type="line"/>
      <point x="235" y="325"/>
      <point x="428" y="577"/>
      <point x="509" y="649" type="curve"/>
      <point x="520" y="637" type="line"/>
    </contour>
  </outline>
</glyph>
<glyph name="seven.oldprop" format="2">
  <advance width="631"/>
  <outline>
    <contour>
      <point x="288" y="566" type="line" smooth="yes"/>
      <point x="197" y="566"/>
      <point x="158" y="559"/>
      <point x="156" y="523" type="curve" smooth="yes"/>
      <point x="146" y="421" type="line"/>
      <point x="79" y="421" type="line"/>
      <point x="79" y="639" type="line"/>
      <point x="582" y="639" type="line"/>
      <point x="582" y="564" type="line"/>
      <point x="443" y="397"/>
      <point x="346" y="257"/>
      <point x="323" y="-77" type="curve"/>
      <point x="226" y="-77" type="line"/>
      <point x="253" y="254"/>
      <point x="446" y="506"/>
      <point x="528" y="578" type="curve"/>
      <point x="539" y="566" type="line"/>
    </contour>
  </outline>
</glyph>
<glyph name="six.linprop" format="2">
  <advance width="651"/>
  <outline>
    <contour>
      <point x="512" y="682" type="line"/>
      <point x="286" y="659"/>
      <point x="164" y="560"/>
      <point x="164" y="295" type="curve" smooth="yes"/>
      <point x="164" y="105"/>
      <point x="225" y="48"/>
      <point x="344" y="48" type="curve"/>
      <point x="458" y="48"/>
      <point x="504" y="128"/>
      <point x="504" y="240" type="curve" smooth="yes"/>
      <point x="504" y="342"/>
      <point x="474" y="410"/>
      <point x="366" y="410" type="curve" smooth="yes"/>
      <point x="253" y="410"/>
      <point x="194" y="347"/>
      <point x="149" y="254" type="curve"/>
      <point x="139" y="305" type="line"/>
      <point x="170" y="389"/>
      <point x="247" y="468"/>
      <point x="376" y="468" type="curve" smooth="yes"/>
      <point x="516" y="468"/>
      <point x="600" y="384"/>
      <point x="600" y="240" type="curve" smooth="yes"/>
      <point x="600" y="97"/>
      <point x="505" y="-10"/>
      <point x="344" y="-10" type="curve"/>
      <point x="177" y="-10"/>
      <point x="71" y="75"/>
      <point x="71" y="295" type="curve" smooth="yes"/>
      <point x="71" y="576"/>
      <point x="225" y="712"/>
      <point x="502" y="740" type="curve"/>
    </contour>
  </outline>
</glyph>
<glyph name="three.lintab" format="2">
  <advance width="594"/>
  <outline>
    <contour>
      <point x="284" y="387" type="line"/>
      <point x="482" y="385"/>
      <point x="549" y="314"/>
      <point x="549" y="201" type="curve" smooth="yes"/>
      <point x="549" y="65"/>
      <point x="444" y="-11"/>
      <point x="288" y="-11" type="curve" smooth="yes"/>
      <point x="137" y="-11"/>
      <point x="71" y="51"/>
      <point x="29" y="149" type="curve"/>
      <point x="80" y="187" type="line"/>
      <point x="113" y="114"/>
      <point x="156" y="47"/>
      <point x="288" y="47" type="curve" smooth="yes"/>
      <point x="393" y="47"/>
      <point x="454" y="85"/>
      <point x="454" y="199" type="curve" smooth="yes"/>
      <point x="454" y="302"/>
      <point x="411" y="349"/>
      <point x="278" y="349" type="curve" smooth="yes"/>
      <point x="167" y="349" type="line"/>
      <point x="167" y="411" type="line"/>
      <point x="266" y="411" type="line" smooth="yes"/>
      <point x="371" y="411"/>
      <point x="432" y="451"/>
      <point x="432" y="552" type="curve" smooth="yes"/>
      <point x="432" y="648"/>
      <point x="381" y="678"/>
      <point x="293" y="678" type="curve" smooth="yes"/>
      <point x="197" y="678"/>
      <point x="153" y="649"/>
      <point x="125" y="622" type="curve"/>
      <point x="123" y="639"/>
      <point x="139" y="654"/>
      <point x="169" y="658" type="curve"/>
      <point x="169" y="538" type="line"/>
      <point x="80" y="538" type="line"/>
      <point x="80" y="663" type="line"/>
      <point x="112" y="692"/>
      <point x="181" y="735"/>
      <point x="295" y="735" type="curve" smooth="yes"/>
      <point x="443" y="735"/>
      <point x="523" y="672"/>
      <point x="523" y="562" type="curve" smooth="yes"/>
      <point x="523" y="450"/>
      <point x="413" y="381"/>
      <point x="267" y="378" type="curve"/>
      <point x="355" y="399" type="line"/>
      <point x="355" y="370" type="line"/>
    </contour>
  </outline>
</glyph>
<glyph name="three.oldprop" format="2">
  <advance width="622"/>
  <outline>
    <contour>
      <point x="302" y="-32" type="curve" smooth="yes"/>
      <point x="407" y="-32"/>
      <point x="472" y="6"/>
      <point x="472" y="118" type="curve" smooth="yes"/>
      <point x="472" y="219"/>
      <point x="426" y="267"/>
      <point x="292" y="267" type="curve" smooth="yes"/>
      <point x="181" y="267" type="line"/>
      <point x="181" y="328" type="line"/>
      <point x="279" y="328" type="line" smooth="yes"/>
      <point x="385" y="328"/>
      <point x="446" y="367"/>
      <point x="446" y="467" type="curve" smooth="yes"/>
      <point x="446" y="563"/>
      <point x="396" y="592"/>
      <point x="308" y="592" type="curve" smooth="yes"/>
      <point x="217" y="592"/>
      <point x="172" y="563"/>
      <point x="145" y="536" type="curve"/>
      <point x="143" y="553"/>
      <point x="159" y="568"/>
      <point x="189" y="572" type="curve"/>
      <point x="189" y="452" type="line"/>
      <point x="100" y="452" type="line"/>
      <point x="100" y="577" type="line"/>
      <point x="131" y="606"/>
      <point x="201" y="649"/>
      <point x="309" y="649" type="curve" smooth="yes"/>
      <point x="457" y="649"/>
      <point x="537" y="588"/>
      <point x="537" y="478" type="curve" smooth="yes"/>
      <point x="537" y="366"/>
      <point x="427" y="297"/>
      <point x="281" y="295" type="curve"/>
      <point x="368" y="314" type="line"/>
      <point x="368" y="290" type="line"/>
      <point x="297" y="304" type="line"/>
      <point x="497" y="302"/>
      <point x="566" y="232"/>
      <point x="566" y="120" type="curve" smooth="yes"/>
      <point x="566" y="-15"/>
      <point x="458" y="-90"/>
      <point x="302" y="-90" type="curve" smooth="yes"/>
      <point x="150" y="-90"/>
      <point x="81" y="-25"/>
      <point x="35" y="74" type="curve"/>
      <point x="92" y="107" type="line"/>
      <point x="129" y="38"/>
      <point x="171" y="-32"/>
    </contour>
  </outline>
</glyph>
<glyph name="three.oldtab" format="2">
  <advance width="593"/>
  <outline>
    <contour>
      <point x="254" y="294" type="line"/>
      <point x="453" y="292"/>
      <point x="538" y="227"/>
      <point x="538" y="117" type="curve" smooth="yes"/>
      <point x="538" y="-22"/>
      <point x="439" y="-90"/>
      <point x="289" y="-90" type="curve" smooth="yes"/>
      <point x="146" y="-90"/>
      <point x="82" y="-28"/>
      <point x="44" y="70" type="curve"/>
      <point x="109" y="101" type="line"/>
      <point x="136" y="36"/>
      <point x="173" y="-32"/>
      <point x="288" y="-32" type="curve" smooth="yes"/>
      <point x="387" y="-32"/>
      <point x="443" y="-1"/>
      <point x="443" y="115" type="curve" smooth="yes"/>
      <point x="443" y="215"/>
      <point x="390" y="260"/>
      <point x="262" y="260" type="curve" smooth="yes"/>
      <point x="174" y="260" type="line"/>
      <point x="174" y="321" type="line"/>
      <point x="249" y="321" type="line" smooth="yes"/>
      <point x="351" y="321"/>
      <point x="421" y="360"/>
      <point x="421" y="471" type="curve" smooth="yes"/>
      <point x="421" y="566"/>
      <point x="373" y="592"/>
      <point x="290" y="592" type="curve" smooth="yes"/>
      <point x="200" y="592"/>
      <point x="158" y="563"/>
      <point x="133" y="536" type="curve"/>
      <point x="130" y="553"/>
      <point x="147" y="568"/>
      <point x="176" y="572" type="curve"/>
      <point x="176" y="443" type="line"/>
      <point x="88" y="443" type="line"/>
      <point x="88" y="577" type="line"/>
      <point x="118" y="606"/>
      <point x="184" y="649"/>
      <point x="293" y="649" type="curve" smooth="yes"/>
      <point x="435" y="649"/>
      <point x="512" y="591"/>
      <point x="512" y="482" type="curve" smooth="yes"/>
      <point x="512" y="360"/>
      <point x="384" y="290"/>
      <point x="238" y="287" type="curve"/>
      <point x="316" y="302" type="line"/>
      <point x="316" y="281" type="line"/>
    </contour>
  </outline>
</glyph>
<glyph name="tilde.uc" format="2">
  <advance width="530"/>
  <anchor x="265" y="694" name="_top"/>
  <outline>
    <contour>
      <point x="346" y="788" type="curve" smooth="yes"/>
      <point x="422" y="788"/>
      <point x="451" y="824"/>
      <point x="473" y="968" type="curve"/>
      <point x="417" y="978" type="line"/>
      <point x="400" y="894"/>
      <point x="397" y="860"/>
      <point x="356" y="860" type="curve" smooth="yes"/>
      <point x="296" y="860"/>
      <point x="279" y="973"/>
      <point x="183" y="973" type="curve" smooth="yes"/>
      <point x="104" y="973"/>
      <point x="77" y="937"/>
      <point x="57" y="797" type="curve"/>
      <point x="114" y="787" type="line"/>
      <point x="128" y="870"/>
      <point x="132" y="904"/>
      <point x="173" y="904" type="curve" smooth="yes"/>
      <point x="229" y="904"/>
      <point x="247" y="788"/>
    </contour>
  </outline>
</glyph>
<glyph name="two.lintab" format="2">
  <advance width="593"/>
  <outline>
    <contour>
      <point x="337" y="68" type="line" smooth="yes"/>
      <point x="424" y="68"/>
      <point x="459" y="75"/>
      <point x="462" y="109" type="curve" smooth="yes"/>
      <point x="472" y="216" type="line"/>
      <point x="539" y="216" type="line"/>
      <point x="539" y="0" type="line"/>
      <point x="45" y="0" type="line"/>
      <point x="45" y="91" type="line"/>
      <point x="274" y="284"/>
      <point x="423" y="368"/>
      <point x="423" y="542" type="curve" smooth="yes"/>
      <point x="423" y="651"/>
      <point x="375" y="678"/>
      <point x="285" y="678" type="curve" smooth="yes"/>
      <point x="204" y="678"/>
      <point x="145" y="652"/>
      <point x="111" y="614" type="curve"/>
      <point x="115" y="641"/>
      <point x="158" y="678"/>
      <point x="158" y="655" type="curve" smooth="yes"/>
      <point x="158" y="517" type="line"/>
      <point x="65" y="517" type="line"/>
      <point x="65" y="655" type="line"/>
      <point x="98" y="689"/>
      <point x="180" y="735"/>
      <point x="285" y="735" type="curve" smooth="yes"/>
      <point x="441" y="735"/>
      <point x="517" y="673"/>
      <point x="517" y="541" type="curve" smooth="yes"/>
      <point x="517" y="357"/>
      <point x="288" y="217"/>
      <point x="79" y="49" type="curve"/>
      <point x="69" y="50"/>
      <point x="66" y="62"/>
      <point x="75" y="68" type="curve"/>
    </contour>
  </outline>
</glyph>
<glyph name="two.oldprop" format="2">
  <advance width="630"/>
  <outline>
    <contour>
      <point x="586" y="0" type="line"/>
      <point x="63" y="0" type="line"/>
      <point x="63" y="91" type="line"/>
      <point x="298" y="239"/>
      <point x="459" y="291"/>
      <point x="459" y="463" type="curve" smooth="yes"/>
      <point x="459" y="572"/>
      <point x="401" y="592"/>
      <point x="311" y="592" type="curve" smooth="yes"/>
      <point x="233" y="592"/>
      <point x="173" y="566"/>
      <point x="138" y="532" type="curve"/>
      <point x="142" y="555"/>
      <point x="185" y="592"/>
      <point x="185" y="573" type="curve" smooth="yes"/>
      <point x="185" y="431" type="line"/>
      <point x="93" y="431" type="line"/>
      <point x="93" y="573" type="line"/>
      <point x="126" y="603"/>
      <point x="208" y="649"/>
      <point x="316" y="649" type="curve" smooth="yes"/>
      <point x="468" y="649"/>
      <point x="553" y="598"/>
      <point x="553" y="463" type="curve" smooth="yes"/>
      <point x="553" y="280"/>
      <point x="311" y="179"/>
      <point x="96" y="52" type="curve"/>
      <point x="83" y="50"/>
      <point x="80" y="65"/>
      <point x="92" y="71" type="curve"/>
      <point x="586" y="68" type="line"/>
    </contour>
  </outline>
</glyph>
<glyph name="uni20B8.proportional" format="2">
  <advance width="728"/>
  <outline>
    <contour>
      <point x="59" y="740" type="line"/>
      <point x="59" y="664" type="line"/>
      <point x="669" y="664" type="line"/>
      <point x="669" y="740" type="line"/>
    </contour>
    <contour>
      <point x="62" y="534" type="line"/>
      <point x="62" y="295" type="line"/>
      <point x="126" y="295" type="line"/>
      <point x="139" y="422" type="line" smooth="yes"/>
      <point x="144" y="458"/>
      <point x="181" y="475"/>
      <point x="271" y="475" type="curve" smooth="yes"/>
      <point x="320" y="475" type="line"/>
      <point x="320" y="95" type="line" smooth="yes"/>
      <point x="320" y="66"/>
      <point x="276" y="59"/>
      <point x="224" y="59" type="curve" smooth="yes"/>
      <point x="202" y="59" type="line"/>
      <point x="202" y="0" type="line"/>
      <point x="526" y="0" type="line"/>
      <point x="526" y="59" type="line"/>
      <point x="504" y="59" type="line" smooth="yes"/>
      <point x="452" y="59"/>
      <point x="409" y="66"/>
      <point x="409" y="95" type="curve" smooth="yes"/>
      <point x="409" y="475" type="line"/>
      <point x="458" y="475" type="line" smooth="yes"/>
      <point x="549" y="475"/>
      <point x="585" y="458"/>
      <point x="589" y="422" type="curve" smooth="yes"/>
      <point x="603" y="295" type="line"/>
      <point x="666" y="295" type="line"/>
      <point x="666" y="534" type="line"/>
    </contour>
  </outline>
</glyph>
<glyph name="zero.linprop" format="2">
  <advance width="685"/>
  <outline>
    <contour>
      <point x="342" y="-11" type="curve" smooth="yes"/>
      <point x="510" y="-11"/>
      <point x="627" y="111"/>
      <point x="627" y="362" type="curve" smooth="yes"/>
      <point x="627" y="613"/>
      <point x="510" y="735"/>
      <point x="342" y="735" type="curve" smooth="yes"/>
      <point x="175" y="735"/>
      <point x="58" y="613"/>
      <point x="58" y="362" type="curve" smooth="yes"/>
      <point x="58" y="111"/>
      <point x="175" y="-11"/>
    </contour>
    <contour>
      <point x="342" y="45" type="curve" smooth="yes"/>
      <point x="212" y="45"/>
      <point x="154" y="142"/>
      <point x="154" y="362" type="curve" smooth="yes"/>
      <point x="154" y="582"/>
      <point x="212" y="679"/>
      <point x="342" y="679" type="curve" smooth="yes"/>
      <point x="473" y="679"/>
      <point x="531" y="582"/>
      <point x="531" y="362" type="curve" smooth="yes"/>
      <point x="531" y="142"/>
      <point x="473" y="45"/>
    </contour>
  </outline>
</glyph>
